<svg width="281" height="79" viewBox="0 0 281 79" fill="none" xmlns="http://www.w3.org/2000/svg">
<rect x="24.75" y="43.75" width="70.5" height="33.5" rx="16.75" fill="white"/>
<rect x="24.75" y="43.75" width="70.5" height="33.5" rx="16.75" stroke="#1F1F1F" stroke-width="1.5"/>
<circle cx="43" cy="60.5" r="3" fill="#FF8200"/>
<path d="M54.7451 65V66.624H53.6251V63.964H54.5491C54.8944 63.2827 55.1511 62.634 55.3191 62.018C55.4871 61.3927 55.6271 60.5713 55.7391 59.554L56.2291 55.2H61.6191V63.964H62.5431V66.624H61.4231V65H54.7451ZM60.4431 63.964V56.236H57.3211L56.9291 59.736C56.8264 60.7347 56.6911 61.528 56.5231 62.116C56.3644 62.704 56.1358 63.32 55.8371 63.964H60.4431ZM63.7717 65V58.056H64.8637V65H63.7717ZM63.6597 56.852V55.48H64.9757V56.852H63.6597ZM66.2423 59.008V58.056H71.4783V59.008H69.4063V65H68.3143V59.008H66.2423ZM73.9489 58.056V63.53L77.3369 58.056H78.5689V65H77.4769V59.526L74.0889 65H72.8569V58.056H73.9489Z" fill="#1F1F1F"/>
<rect x="187.75" y="6.75" width="91.5" height="33.5" rx="16.75" fill="white"/>
<rect x="187.75" y="6.75" width="91.5" height="33.5" rx="16.75" stroke="#1F1F1F" stroke-width="1.5"/>
<circle cx="206" cy="23.5" r="3" fill="#FF8200"/>
<path d="M217.323 28V18.2H220.907C221.84 18.2 222.587 18.4193 223.147 18.858C223.707 19.2967 223.987 19.866 223.987 20.566C223.987 21.602 223.418 22.3207 222.279 22.722C222.932 22.946 223.436 23.2493 223.791 23.632C224.155 24.0147 224.337 24.5327 224.337 25.186C224.337 26.026 224.006 26.7073 223.343 27.23C222.68 27.7433 221.878 28 220.935 28H217.323ZM218.499 23.296V27.02H220.753C221.49 27.02 222.083 26.8753 222.531 26.586C222.988 26.2873 223.217 25.8113 223.217 25.158C223.217 24.514 222.988 24.0427 222.531 23.744C222.083 23.4453 221.49 23.296 220.753 23.296H218.499ZM218.499 19.18V22.316H220.823C221.439 22.316 221.934 22.19 222.307 21.938C222.68 21.686 222.867 21.2893 222.867 20.748C222.867 20.2253 222.68 19.8333 222.307 19.572C221.934 19.3107 221.439 19.18 220.823 19.18H218.499ZM226.038 23.324V21.056H227.13V23.366C227.13 23.9447 227.27 24.3787 227.55 24.668C227.83 24.9573 228.227 25.102 228.74 25.102C229.3 25.102 229.739 24.892 230.056 24.472C230.383 24.052 230.546 23.492 230.546 22.792V21.056H231.638V28H230.546V24.724C230.378 25.1533 230.108 25.4893 229.734 25.732C229.37 25.9653 228.941 26.082 228.446 26.082C227.756 26.082 227.182 25.8487 226.724 25.382C226.267 24.9153 226.038 24.2293 226.038 23.324ZM234.647 21.056V26.53L238.035 21.056H239.267V28H238.175V22.526L234.787 28H233.555V21.056H234.647ZM240.469 22.008V21.056H245.705V22.008H243.633V28H242.541V22.008H240.469ZM252.851 24.71H247.111C247.149 25.4567 247.382 26.0727 247.811 26.558C248.241 27.034 248.805 27.272 249.505 27.272C250.093 27.272 250.565 27.1367 250.919 26.866C251.283 26.586 251.591 26.194 251.843 25.69L252.641 26.166C251.941 27.5193 250.882 28.196 249.463 28.196C248.502 28.196 247.685 27.8507 247.013 27.16C246.351 26.46 246.019 25.5827 246.019 24.528C246.019 23.464 246.355 22.5867 247.027 21.896C247.699 21.2053 248.525 20.86 249.505 20.86C250.532 20.86 251.344 21.182 251.941 21.826C252.548 22.47 252.851 23.3053 252.851 24.332V24.71ZM249.505 21.784C248.899 21.784 248.395 21.9707 247.993 22.344C247.601 22.708 247.335 23.198 247.195 23.814H251.759C251.722 23.198 251.479 22.708 251.031 22.344C250.593 21.9707 250.084 21.784 249.505 21.784ZM259.759 21.056V28H258.667V22.008H255.923L255.461 26.852C255.415 27.2627 255.275 27.5753 255.041 27.79C254.817 27.9953 254.533 28.098 254.187 28.098C253.963 28.098 253.73 28.0653 253.487 28L253.641 27.048C253.763 27.0947 253.87 27.118 253.963 27.118C254.103 27.118 254.201 27.076 254.257 26.992C254.323 26.908 254.365 26.7773 254.383 26.6L254.915 21.056H259.759ZM261.747 28V21.056H262.839V28H261.747ZM261.635 19.852V18.48H262.951V19.852H261.635Z" fill="#1F1F1F"/>
<rect x="160.75" y="43.75" width="85.5" height="33.5" rx="16.75" fill="white"/>
<rect x="160.75" y="43.75" width="85.5" height="33.5" rx="16.75" stroke="#1F1F1F" stroke-width="1.5"/>
<circle cx="179" cy="60.5" r="3" fill="#FF8200"/>
<path d="M190.69 65V55.2H191.866V63.964H194.75V55.2H195.926V63.964H198.81V55.2H199.986V65H190.69ZM203.232 58.056V61.122L205.878 58.056H207.152L204.758 60.8L207.67 65H206.368L204.016 61.654L203.232 62.564V65H202.14V58.056H203.232ZM214.395 59.54C214.769 60.1093 214.955 60.772 214.955 61.528C214.955 62.284 214.769 62.9467 214.395 63.516C214.031 64.0853 213.579 64.51 213.037 64.79C212.496 65.0607 211.927 65.196 211.329 65.196C210.732 65.196 210.163 65.0607 209.621 64.79C209.08 64.51 208.623 64.0853 208.249 63.516C207.885 62.9467 207.703 62.284 207.703 61.528C207.703 60.772 207.885 60.1093 208.249 59.54C208.623 58.9707 209.08 58.5507 209.621 58.28C210.163 58 210.732 57.86 211.329 57.86C211.927 57.86 212.496 58 213.037 58.28C213.579 58.5507 214.031 58.9707 214.395 59.54ZM209.537 63.46C210.023 63.964 210.62 64.216 211.329 64.216C212.039 64.216 212.631 63.964 213.107 63.46C213.593 62.9467 213.835 62.3027 213.835 61.528C213.835 60.7533 213.593 60.114 213.107 59.61C212.631 59.0967 212.039 58.84 211.329 58.84C210.62 58.84 210.023 59.0967 209.537 59.61C209.061 60.114 208.823 60.7533 208.823 61.528C208.823 62.3027 209.061 62.9467 209.537 63.46ZM221.853 58.056V65H220.761V59.008H218.017L217.555 63.852C217.509 64.2627 217.369 64.5753 217.135 64.79C216.911 64.9953 216.627 65.098 216.281 65.098C216.057 65.098 215.824 65.0653 215.581 65L215.735 64.048C215.857 64.0947 215.964 64.118 216.057 64.118C216.197 64.118 216.295 64.076 216.351 63.992C216.417 63.908 216.459 63.7773 216.477 63.6L217.009 58.056H221.853ZM224.864 58.056V63.53L228.252 58.056H229.484V65H228.392V59.526L225.004 65H223.772V58.056H224.864Z" fill="#1F1F1F"/>
<rect x="0.75" y="6.75" width="102.5" height="33.5" rx="16.75" fill="white"/>
<rect x="0.75" y="6.75" width="102.5" height="33.5" rx="16.75" stroke="#1F1F1F" stroke-width="1.5"/>
<circle cx="19" cy="23.5" r="3" fill="#FF8200"/>
<path d="M31.5666 26.698L32.3646 24.682L29.3126 18.2H30.5166L32.8966 23.338L34.9686 18.2H36.1446L32.5466 27.09C32.248 27.8273 31.786 28.196 31.1606 28.196C30.8433 28.196 30.568 28.14 30.3346 28.028L30.5726 27.02C30.722 27.1133 30.8666 27.16 31.0066 27.16C31.2493 27.16 31.436 27.006 31.5666 26.698ZM37.2734 23.324V21.056H38.3654V23.366C38.3654 23.9447 38.5054 24.3787 38.7854 24.668C39.0654 24.9573 39.462 25.102 39.9754 25.102C40.5354 25.102 40.974 24.892 41.2914 24.472C41.618 24.052 41.7814 23.492 41.7814 22.792V21.056H42.8734V28H41.7814V24.724C41.6134 25.1533 41.3427 25.4893 40.9694 25.732C40.6054 25.9653 40.176 26.082 39.6814 26.082C38.9907 26.082 38.4167 25.8487 37.9594 25.382C37.502 24.9153 37.2734 24.2293 37.2734 23.324ZM50.5739 28H49.4819C49.2019 27.6453 49.0619 27.188 49.0619 26.628C48.8473 27.132 48.5299 27.5193 48.1099 27.79C47.6993 28.0607 47.2279 28.196 46.6959 28.196C45.9959 28.196 45.4313 28 45.0019 27.608C44.5726 27.2067 44.3579 26.698 44.3579 26.082C44.3579 25.4473 44.5773 24.9433 45.0159 24.57C45.4546 24.1873 46.0333 23.9353 46.7519 23.814L49.0619 23.436V23.128C49.0619 22.232 48.5159 21.784 47.4239 21.784C46.9013 21.784 46.4953 21.8867 46.2059 22.092C45.9259 22.2973 45.7859 22.554 45.7859 22.862C45.7859 22.9553 45.7953 23.0253 45.8139 23.072L44.8619 23.394C44.7873 23.198 44.7499 23.0113 44.7499 22.834C44.7499 22.2927 44.9926 21.8307 45.4779 21.448C45.9726 21.056 46.6213 20.86 47.4239 20.86C48.3293 20.86 49.0106 21.0607 49.4679 21.462C49.9253 21.854 50.1539 22.4093 50.1539 23.128V26.264C50.1539 26.6653 50.1819 26.9873 50.2379 27.23C50.2939 27.4633 50.4059 27.72 50.5739 28ZM46.8219 27.216C47.5219 27.216 48.0679 26.9547 48.4599 26.432C48.8613 25.9 49.0619 25.2607 49.0619 24.514V24.304L46.9479 24.668C45.9679 24.836 45.4779 25.2887 45.4779 26.026C45.4779 26.39 45.5946 26.6793 45.8279 26.894C46.0706 27.1087 46.4019 27.216 46.8219 27.216ZM57.4915 25.69L58.2755 26.194C57.5941 27.5287 56.5535 28.196 55.1535 28.196C54.1455 28.196 53.3008 27.8507 52.6195 27.16C51.9381 26.4693 51.5975 25.592 51.5975 24.528C51.5975 23.4733 51.9428 22.6007 52.6335 21.91C53.3335 21.21 54.1735 20.86 55.1535 20.86C55.9001 20.86 56.5348 21.028 57.0575 21.364C57.5895 21.6907 57.9815 22.1573 58.2335 22.764L57.4075 23.31C56.9501 22.33 56.2035 21.84 55.1675 21.84C54.4581 21.84 53.8655 22.0873 53.3895 22.582C52.9228 23.0767 52.6895 23.7253 52.6895 24.528C52.6895 25.3307 52.9228 25.9793 53.3895 26.474C53.8561 26.9687 54.4488 27.216 55.1675 27.216C55.7181 27.216 56.1755 27.09 56.5395 26.838C56.9035 26.5767 57.2208 26.194 57.4915 25.69ZM60.627 21.056V23.856H64.015V21.056H65.107V28H64.015V24.808H60.627V28H59.535V21.056H60.627ZM68.1159 21.056V26.53L71.5039 21.056H72.7359V28H71.6439V22.526L68.2559 28H67.0239V21.056H68.1159ZM75.7415 21.056V24.122L78.3875 21.056H79.6615L77.2675 23.8L80.1795 28H78.8775L76.5255 24.654L75.7415 25.564V28H74.6495V21.056H75.7415ZM82.1914 21.056V26.53L85.5794 21.056H86.8114V28H85.7194V22.526L82.3314 28H81.0994V21.056H82.1914Z" fill="#1F1F1F"/>
<rect x="92.0245" y="47.3722" width="92.6962" height="33.5" rx="16.75" transform="rotate(-30 92.0245 47.3722)" fill="white"/>
<rect x="92.0245" y="47.3722" width="92.6962" height="33.5" rx="16.75" transform="rotate(-30 92.0245 47.3722)" stroke="#1F1F1F" stroke-width="1.5"/>
<circle cx="117.155" cy="52.2031" r="3" fill="#FF8200"/>
<path d="M130.492 49.7013L125.592 41.2143L126.61 40.6263L128.752 44.3363L132.947 41.9143L130.805 38.2043L131.823 37.6163L136.723 46.1033L135.705 46.6913L133.465 42.8115L129.27 45.2335L131.51 49.1133L130.492 49.7013ZM143.416 42.2396L142.47 42.7856C142.05 42.6184 141.7 42.2923 141.42 41.8074C141.486 42.3512 141.405 42.8453 141.177 43.2897C140.957 43.7294 140.616 44.0823 140.155 44.3483C139.549 44.6983 138.962 44.8109 138.394 44.6861C137.822 44.5532 137.381 44.22 137.073 43.6865C136.756 43.1369 136.694 42.5907 136.887 42.0481C137.076 41.4974 137.451 40.9898 138.013 40.5254L139.824 39.043L139.67 38.7763C139.222 38.0003 138.525 37.8853 137.58 38.4313C137.127 38.6927 136.827 38.9846 136.679 39.3071C136.539 39.6249 136.546 39.9172 136.7 40.1839C136.747 40.2647 136.79 40.3207 136.829 40.3518L136.166 41.1066C136.003 40.9742 135.878 40.8312 135.789 40.6777C135.518 40.2089 135.497 39.6874 135.726 39.1134C135.959 38.5265 136.423 38.0325 137.118 37.6311C137.902 37.1785 138.592 37.0116 139.189 37.1305C139.781 37.2413 140.257 37.6079 140.616 38.2303L142.184 40.9461C142.385 41.2937 142.57 41.5586 142.74 41.7407C142.905 41.9148 143.13 42.0811 143.416 42.2396ZM139.774 43.4366C140.381 43.0866 140.723 42.5873 140.801 41.9386C140.882 41.2772 140.737 40.6232 140.363 39.9766L140.258 39.7947L138.61 41.167C137.845 41.8024 137.647 42.4395 138.015 43.078C138.197 43.3933 138.443 43.5855 138.753 43.6547C139.07 43.7193 139.411 43.6466 139.774 43.4366ZM144.608 41.5513L141.136 35.5376L143.694 34.0606C144.276 33.7246 144.823 33.6082 145.335 33.7112C145.843 33.8062 146.22 34.0679 146.467 34.4963C146.841 35.1429 146.756 35.7794 146.212 36.4059C147.162 36.1481 147.855 36.3951 148.289 37.1468C148.578 37.6479 148.626 38.1698 148.433 38.7125C148.235 39.247 147.817 39.6986 147.178 40.0673L144.608 41.5513ZM142.529 35.7676L143.523 37.4892L145.148 36.5512C145.439 36.3832 145.632 36.1752 145.725 35.927C145.823 35.6661 145.792 35.3982 145.633 35.1234C145.475 34.8486 145.26 34.6921 144.99 34.654C144.724 34.603 144.445 34.6616 144.154 34.8296L142.529 35.7676ZM143.971 38.2652L145.077 40.1809L146.775 39.2009C147.098 39.0142 147.308 38.78 147.404 38.4982C147.503 38.2038 147.469 37.911 147.301 37.62C147.133 37.329 146.899 37.157 146.599 37.1039C146.302 37.0381 145.992 37.0985 145.669 37.2852L143.971 38.2652ZM148.4 33.9624L147.266 31.9983L148.212 31.4523L149.367 33.4528C149.656 33.9539 149.994 34.2598 150.382 34.3703C150.769 34.4809 151.185 34.4079 151.629 34.1512C152.114 33.8712 152.389 33.47 152.454 32.9476C152.527 32.4205 152.388 31.8539 152.038 31.2477L151.17 29.7443L152.116 29.1983L155.588 35.2119L154.642 35.7579L153.004 32.9208C153.073 33.3766 153.007 33.803 152.805 34.1998C152.606 34.5839 152.293 34.8996 151.865 35.1469C151.266 35.4922 150.653 35.5772 150.023 35.4017C149.394 35.2262 148.853 34.7464 148.4 33.9624ZM162.257 31.3617L161.311 31.9077C160.891 31.7405 160.541 31.4144 160.261 30.9295C160.327 31.4733 160.246 31.9674 160.018 32.4118C159.798 32.8515 159.457 33.2044 158.996 33.4704C158.39 33.8204 157.803 33.933 157.235 33.8082C156.663 33.6753 156.223 33.3421 155.915 32.8086C155.597 32.259 155.535 31.7128 155.728 31.1702C155.917 30.6195 156.292 30.1119 156.854 29.6475L158.665 28.1651L158.511 27.8984C158.063 27.1224 157.366 27.0074 156.421 27.5534C155.968 27.8148 155.668 28.1067 155.52 28.4292C155.38 28.747 155.387 29.0393 155.541 29.306C155.588 29.3869 155.631 29.4428 155.67 29.4739L155.007 30.2287C154.844 30.0963 154.719 29.9533 154.63 29.7998C154.359 29.331 154.339 28.8095 154.568 28.2355C154.8 27.6486 155.264 27.1546 155.959 26.7532C156.743 26.3006 157.433 26.1337 158.03 26.2526C158.622 26.3634 159.098 26.73 159.457 27.3524L161.025 30.0682C161.226 30.4158 161.411 30.6807 161.581 30.8628C161.746 31.0369 161.971 31.2032 162.257 31.3617ZM158.615 32.5587C159.222 32.2087 159.564 31.7094 159.642 31.0607C159.724 30.3993 159.578 29.7453 159.204 29.0987L159.099 28.9168L157.451 30.2891C156.686 30.9246 156.488 31.5616 156.857 32.2001C157.039 32.5154 157.284 32.7076 157.594 32.7768C157.911 32.8414 158.252 32.7687 158.615 32.5587ZM160.923 24.1137L163.66 28.8544L163.857 22.4197L164.924 21.8037L168.396 27.8174L167.45 28.3634L164.713 23.6228L164.516 30.0574L163.449 30.6734L159.977 24.6597L160.923 24.1137ZM161.691 20.8249L162.467 20.3769C162.686 20.7567 162.746 21.1316 162.647 21.5013C162.544 21.863 162.31 22.1488 161.946 22.3588C161.582 22.5688 161.218 22.6283 160.853 22.5373C160.483 22.4382 160.189 22.1987 159.969 21.8189L160.745 21.3709C160.951 21.7265 161.211 21.8133 161.526 21.6313C161.841 21.4493 161.896 21.1805 161.691 20.8249Z" fill="#1F1F1F"/>
<path d="M0 77.5H281" stroke="#1F1F1F" stroke-width="1.5"/>
</svg>
