<svg width="12" height="12" viewBox="0 0 12 12" fill="none" xmlns="http://www.w3.org/2000/svg">
<path d="M-5.24537e-07 6C-3.85421e-07 7.5913 0.632141 9.11742 1.75736 10.2426C2.88258 11.3679 4.4087 12 6 12C7.5913 12 9.11742 11.3679 10.2426 10.2426C11.3679 9.11742 12 7.5913 12 6L6 6L-5.24537e-07 6Z" fill="#1CD175"/>
<path d="M5.24537e-07 -1.04907e-06C3.85421e-07 1.5913 0.632141 3.11742 1.75736 4.24264C2.88258 5.36786 4.4087 6 6 6C7.5913 6 9.11742 5.36786 10.2426 4.24264C11.3679 3.11742 12 1.5913 12 9.53674e-07L6 -5.24537e-07L5.24537e-07 -1.04907e-06Z" fill="#1CD175"/>
</svg>
