<svg width="30" height="32" viewBox="0 0 30 32" fill="none" xmlns="http://www.w3.org/2000/svg">
<path d="M24 3C25.1046 3 26 3.89543 26 5V26C26 27.1046 25.1046 28 24 28H6C4.89543 28 4 27.1046 4 26V5C4 3.89543 4.89543 3 6 3H24ZM15.9619 10.3691C15.6857 9.40203 14.3143 9.40203 14.0381 10.3691L13.5469 12.0918C13.3988 12.6108 12.8653 12.9183 12.3418 12.7871L10.6045 12.3516C9.62884 12.1072 8.94318 13.2948 9.64258 14.0176L10.8887 15.3047C11.264 15.6924 11.264 16.3076 10.8887 16.6953L9.64258 17.9824C8.94318 18.7052 9.62884 19.8928 10.6045 19.6484L12.3418 19.2129C12.8653 19.0817 13.3988 19.3892 13.5469 19.9082L14.0381 21.6309C14.3143 22.598 15.6857 22.598 15.9619 21.6309L16.4531 19.9082C16.6012 19.3892 17.1347 19.0817 17.6582 19.2129L19.3955 19.6484C20.3712 19.8928 21.0568 18.7052 20.3574 17.9824L19.1113 16.6953C18.736 16.3076 18.736 15.6924 19.1113 15.3047L20.3574 14.0176C21.0568 13.2948 20.3712 12.1072 19.3955 12.3516L17.6582 12.7871C17.1347 12.9183 16.6012 12.6108 16.4531 12.0918L15.9619 10.3691Z" fill="currentColor"/>
</svg>
