<svg width="32" height="32" viewBox="0 0 32 32" fill="none" xmlns="http://www.w3.org/2000/svg">
<path d="M29.7193 10.3507C28.2845 8.89032 26.3118 7.96797 24.1085 7.94235C24.0316 3.56125 20.4448 0 16.0125 0C13.8092 0 11.8108 0.871097 10.3505 2.30584C8.89016 3.74059 7.96784 5.71338 7.94222 7.91674C3.56119 7.9936 0 11.5805 0 15.9872C0 18.1906 0.896702 20.1889 2.33143 21.6493C3.76615 23.1097 5.73889 24.032 7.94222 24.0576C8.01908 28.4388 11.6059 32 16.0125 32C18.2159 32 20.2142 31.1033 21.6746 29.6942C23.1349 28.2594 24.0572 26.2866 24.0829 24.0833C28.4639 24.0064 31.9994 20.4195 31.9994 16.0128C32.0251 13.8094 31.154 11.8111 29.7193 10.3507ZM24.9539 17.012L18.139 18.1393L17.0117 24.9544H15.0134L13.9117 18.1393L7.09676 17.012V15.0136L13.9117 13.8863L15.0134 7.07126H17.0117L18.139 13.8863L24.9539 15.0136V17.012Z" fill="currentColor"/>
</svg>
