<svg width="32" height="32" viewBox="0 0 32 32" fill="none" xmlns="http://www.w3.org/2000/svg">
<path d="M26.8566 16L31.9609 11.1288C29.8014 4.68384 23.4799 0 15.9805 0C8.52029 0 2.15952 4.68384 0 11.1288L5.10432 16C5.10432 10.267 9.97306 5.62061 15.9805 5.62061C21.9878 5.62061 26.8566 10.267 26.8566 16Z" fill="currentColor"/>
<path d="M5.14338 16L0.0390625 20.8712C2.19858 27.3162 8.52009 32 16.0195 32C23.4797 32 29.8404 27.3162 32 20.8712L26.8956 16C26.8956 21.733 22.0269 26.3794 16.0195 26.3794C10.0121 26.3419 5.14338 21.6956 5.14338 16Z" fill="currentColor"/>
</svg>
