<svg width="30" height="32" viewBox="0 0 30 32" fill="none" xmlns="http://www.w3.org/2000/svg">
<path d="M14.0621 3.53451C14.3843 2.66389 15.6157 2.66389 15.9379 3.53451L18.8918 11.5174C18.9931 11.7911 19.2089 12.0069 19.4826 12.1082L27.4655 15.0621C28.3361 15.3843 28.3361 16.6157 27.4655 16.9379L19.4826 19.8918C19.2089 19.9931 18.9931 20.2089 18.8918 20.4826L15.9379 28.4655C15.6157 29.3361 14.3843 29.3361 14.0621 28.4655L11.1082 20.4826C11.0069 20.2089 10.7911 19.9931 10.5174 19.8918L2.53451 16.9379C1.66389 16.6157 1.66389 15.3843 2.53451 15.0621L10.5174 12.1082C10.7911 12.0069 11.0069 11.7911 11.1082 11.5174L14.0621 3.53451Z" fill="currentColor"/>
</svg>
