<svg width="30" height="32" viewBox="0 0 30 32" fill="none" xmlns="http://www.w3.org/2000/svg">
<path d="M14.9998 10.5674V16.0402H14.9806C14.5396 16.0402 14.0987 16.021 13.6577 15.9634C7.65687 15.2913 2.99805 10.2025 2.99805 4H8.46209C8.46209 7.64854 11.3954 10.5674 14.9998 10.5674Z" fill="currentColor"/>
<path d="M14.9998 22.5325V28.0054C8.36623 28.0054 2.99805 22.6286 2.99805 15.9844H8.46209C8.46209 19.5945 11.3954 22.5325 14.9998 22.5325Z" fill="currentColor"/>
<path d="M27 10.5674V16.0402H26.9808C26.5399 16.0402 26.0989 16.021 25.658 15.9634C19.6571 15.2913 14.9983 10.2025 14.9983 4H20.4623C20.4432 7.64854 23.3765 10.5674 27 10.5674Z" fill="currentColor"/>
<path d="M27.0003 22.5325V28.0054C20.3667 28.0054 14.9985 22.6286 14.9985 15.9844H20.4626C20.4434 19.5945 23.3767 22.5325 27.0003 22.5325Z" fill="currentColor"/>
</svg>
