<svg width="30" height="32" viewBox="0 0 30 32" fill="none" xmlns="http://www.w3.org/2000/svg">
<path d="M14.0904 3.99163C14.4464 3.21222 15.5536 3.21222 15.9096 3.99163L18.2742 9.16888C18.4512 9.55656 18.8546 9.78942 19.2788 9.74892L24.9447 9.20806C25.7977 9.12664 26.3514 10.0856 25.8544 10.7836L22.553 15.42C22.3058 15.7671 22.3058 16.2329 22.553 16.58L25.8544 21.2164C26.3514 21.9144 25.7977 22.8734 24.9447 22.7919L19.2788 22.2511C18.8546 22.2106 18.4512 22.4434 18.2742 22.8311L15.9096 28.0084C15.5536 28.7878 14.4464 28.7878 14.0904 28.0084L11.7258 22.8311C11.5488 22.4434 11.1454 22.2106 10.7212 22.2511L5.05525 22.7919C4.20228 22.8734 3.64863 21.9144 4.14563 21.2164L7.44699 16.58C7.6942 16.2329 7.6942 15.7671 7.44699 15.42L4.14564 10.7836C3.64863 10.0856 4.20228 9.12664 5.05525 9.20806L10.7212 9.74892C11.1454 9.78942 11.5488 9.55656 11.7258 9.16888L14.0904 3.99163Z" fill="currentColor"/>
</svg>
