<svg width="32" height="32" viewBox="0 0 32 32" fill="none" xmlns="http://www.w3.org/2000/svg">
<path d="M23 16C23 18.0058 22.1563 19.8146 20.8044 21.0909C19.5508 22.2744 17.8601 23 16 23C14.1399 23 12.4492 22.2744 11.1955 21.0909C9.84368 19.8146 9 18.0058 9 16H23Z" fill="currentColor"/>
<path fill-rule="evenodd" clip-rule="evenodd" d="M3 10.0909C3 6.17471 6.17471 3 10.0909 3H21.9091C25.8253 3 29 6.17471 29 10.0909V21.9091C29 25.8253 25.8253 29 21.9091 29H3V10.0909ZM6.25 16C6.25 10.6152 10.6152 6.25 16 6.25C21.3847 6.25 25.75 10.6152 25.75 16C25.75 21.3847 21.3847 25.75 16 25.75C10.6152 25.75 6.25 21.3847 6.25 16Z" fill="currentColor"/>
</svg>
