<svg width="32" height="30" viewBox="0 0 32 30" fill="none" xmlns="http://www.w3.org/2000/svg">
<path d="M4 15C4 8.37258 9.37258 3 16 3C22.6274 3 28 8.37258 28 15C28 21.6274 22.6274 27 16 27C9.37258 27 4 21.6274 4 15ZM7.00195 14.8086C6.95107 17.195 7.85051 19.5041 9.50195 21.2275C11.1534 22.951 13.4222 23.9472 15.8086 23.998L15.877 20.7783C14.3448 20.7456 12.8885 20.1055 11.8281 18.999C10.7677 17.8924 10.19 16.4093 10.2227 14.877C10.2554 13.3448 10.8955 11.8885 12.002 10.8281C13.1086 9.76769 14.5917 9.18998 16.124 9.22266L16.1924 6.00293C13.8061 5.95205 11.4968 6.85059 9.77344 8.50195C8.05003 10.1534 7.05286 12.4222 7.00195 14.8086Z" fill="currentColor"/>
</svg>
