<svg width="30" height="32" viewBox="0 0 30 32" fill="none" xmlns="http://www.w3.org/2000/svg">
<path d="M28 13.1499C28 12.2984 27.5564 11.515 26.7375 10.7997C27.5564 10.0845 28 9.30109 28 8.44959C28 5.45232 22.1995 3 15 3C7.80053 3 2 5.41826 2 8.44959C2 9.30109 2.44357 10.0845 3.26247 10.7997C2.44357 11.515 2 12.2984 2 13.1499C2 14.0014 2.44357 14.7847 3.26247 15.5C2.44357 16.2153 2 16.9986 2 17.8501C2 18.7016 2.44357 19.485 3.26247 20.2003C2.44357 20.9155 2 21.6989 2 22.5504C2 25.5477 7.80053 28 15 28C22.1995 28 28 25.5817 28 22.5504C28 21.6989 27.5564 20.9155 26.7375 20.2003C27.5564 19.485 28 18.7016 28 17.8501C28 16.9986 27.5564 16.2153 26.7375 15.5C27.5223 14.7847 28 13.9673 28 13.1499ZM4.9685 8.41553C4.9685 6.74659 9.47244 5.41825 15 5.41825C20.5276 5.41825 25.0315 6.78065 25.0315 8.41553C25.0315 8.75613 24.8268 9.09673 24.4856 9.40327C22.1312 8.34741 18.7533 7.66621 15 7.66621C11.2467 7.66621 7.86877 8.31335 5.51444 9.40327C5.17323 9.09673 4.9685 8.79019 4.9685 8.41553ZM21.2782 20.2003C19.5722 20.609 17.3885 20.8474 15 20.8474C12.6115 20.8474 10.4278 20.609 8.72179 20.2003C10.4278 19.7916 12.6115 19.5531 15 19.5531C17.3885 19.5531 19.5722 19.7575 21.2782 20.2003ZM8.72179 15.5C10.4278 15.0913 12.6115 14.8529 15 14.8529C17.3885 14.8529 19.5722 15.0913 21.2782 15.5C19.5722 15.9087 17.3885 16.1471 15 16.1471C12.6115 16.1471 10.4619 15.9087 8.72179 15.5ZM8.72179 10.7657C10.4278 10.3569 12.6115 10.1185 15 10.1185C17.3885 10.1185 19.5722 10.3569 21.2782 10.7657C19.5722 11.1744 17.3885 11.4128 15 11.4128C12.6115 11.4128 10.4619 11.2084 8.72179 10.7657ZM4.9685 13.1499C4.9685 12.8093 5.17323 12.4687 5.51444 12.1621C6.36745 12.5368 7.39108 12.8774 8.48294 13.1499C7.39108 13.4223 6.36745 13.7629 5.51444 14.1376C5.17323 13.797 4.9685 13.4905 4.9685 13.1499ZM4.9685 17.8501C4.9685 17.5095 5.17323 17.1689 5.51444 16.8624C6.36745 17.2371 7.39108 17.5776 8.48294 17.8501C7.39108 18.1226 6.36745 18.4632 5.51444 18.8379C5.17323 18.5313 4.9685 18.1907 4.9685 17.8501ZM25.0656 22.5504C25.0656 24.2193 20.5617 25.5477 15.0341 25.5477C9.50656 25.5477 5.00262 24.1853 5.00262 22.5504C5.00262 22.2098 5.20735 21.8692 5.54856 21.5627C7.90289 22.6185 11.2808 23.2997 15.0341 23.2997C18.7874 23.2997 22.1654 22.6526 24.5197 21.5627C24.8609 21.8692 25.0656 22.1757 25.0656 22.5504ZM25.0656 17.8501C25.0656 18.1907 24.8609 18.5313 24.5197 18.8379C23.6667 18.4632 22.643 18.1226 21.5512 17.8501C22.643 17.5776 23.6667 17.2371 24.5197 16.8624C24.8609 17.1689 25.0656 17.4755 25.0656 17.8501ZM21.5171 13.1499C22.6089 12.8774 23.6325 12.5368 24.4856 12.1621C24.8609 12.4687 25.0315 12.8093 25.0315 13.1499C25.0315 13.4905 24.8268 13.8311 24.4856 14.1376C23.6325 13.7289 22.6089 13.3883 21.5171 13.1499Z" fill="currentColor"/>
</svg>
