<svg width="32" height="30" viewBox="0 0 32 30" fill="none" xmlns="http://www.w3.org/2000/svg">
<path d="M28 15C28 21.6274 22.6274 27 16 27C9.37258 27 4 21.6274 4 15C4 8.37258 9.37258 3 16 3C22.6274 3 28 8.37258 28 15ZM24.998 15.1914C25.0489 12.805 24.1495 10.4959 22.498 8.77246C20.8466 7.04904 18.5778 6.05284 16.1914 6.00195L16.123 9.22168C17.6552 9.2544 19.1115 9.89453 20.1719 11.001C21.2323 12.1076 21.81 13.5907 21.7773 15.123C21.7446 16.6552 21.1045 18.1115 19.998 19.1719C18.8914 20.2323 17.4083 20.81 15.876 20.7773L15.8076 23.9971C18.1939 24.048 20.5032 23.1494 22.2266 21.498C23.95 19.8466 24.9471 17.5778 24.998 15.1914Z" fill="currentColor"/>
</svg>
