<svg width="30" height="32" viewBox="0 0 30 32" fill="none" xmlns="http://www.w3.org/2000/svg">
<path d="M17.4986 14.7276C18.9175 11.7531 18.4037 8.09024 15.943 5.62951C12.8176 2.5041 7.75469 2.5041 4.62928 5.62951C1.50387 8.75492 1.50387 13.8178 4.62928 16.9432C7.09001 19.404 10.7528 19.9178 13.7274 18.4989L17.8286 22.6001L14.0574 26.3713L17.8286 30.1425L21.5998 26.3713L23.4855 28.2569L27.2567 24.4857L17.4986 14.7276ZM8.40051 13.172C7.35871 12.1302 7.35871 10.4426 8.40051 9.40075C9.44232 8.35894 11.1299 8.35894 12.1718 9.40075C13.2136 10.4426 13.2136 12.1302 12.1718 13.172C11.1299 14.2138 9.44232 14.2138 8.40051 13.172Z" fill="currentColor"/>
</svg>
