<svg width="30" height="32" viewBox="0 0 30 32" fill="none" xmlns="http://www.w3.org/2000/svg">
<path d="M15 4C21.6274 4 27 9.37258 27 16C27 22.6274 21.6274 28 15 28C8.37258 28 3 22.6274 3 16C3 9.37258 8.37258 4 15 4ZM15.1914 7.00195C12.805 6.95107 10.4959 7.85051 8.77246 9.50195C7.04904 11.1534 6.05284 13.4222 6.00195 15.8086L9.22168 15.877C9.2544 14.3448 9.89454 12.8885 11.001 11.8281C12.1076 10.7677 13.5907 10.19 15.123 10.2227C16.6552 10.2554 18.1115 10.8955 19.1719 12.002C20.2323 13.1086 20.81 14.5917 20.7773 16.124L23.9971 16.1924C24.048 13.8061 23.1494 11.4968 21.498 9.77344C19.8466 8.05003 17.5778 7.05286 15.1914 7.00195Z" fill="currentColor"/>
</svg>
