<svg width="30" height="32" viewBox="0 0 30 32" fill="none" xmlns="http://www.w3.org/2000/svg">
<path d="M15 28C8.37258 28 3 22.6274 3 16C3 9.37259 8.37258 4 15 4C21.6274 4 27 9.37258 27 16C27 22.6274 21.6274 28 15 28ZM14.8086 24.998C17.195 25.0489 19.5041 24.1495 21.2275 22.498C22.951 20.8466 23.9472 18.5778 23.998 16.1914L20.7783 16.123C20.7456 17.6552 20.1055 19.1115 18.999 20.1719C17.8924 21.2323 16.4093 21.81 14.877 21.7773C13.3448 21.7446 11.8885 21.1045 10.8281 19.998C9.76769 18.8914 9.18998 17.4083 9.22266 15.876L6.00293 15.8076C5.95205 18.1939 6.85059 20.5032 8.50195 22.2266C10.1534 23.95 12.4222 24.9471 14.8086 24.998Z" fill="currentColor"/>
</svg>
