<svg width="30" height="32" viewBox="0 0 30 32" fill="none" xmlns="http://www.w3.org/2000/svg">
<g clip-path="url(#clip0_3033_9800)">
<path d="M9.26172 29.0015C7.16445 29.0015 5.06211 29.0015 2.96484 29.0015C2.30977 29.0015 2 28.697 2 28.0423C2 24.0431 2 20.0388 2 16.0396C2.00508 9.84793 6.28594 4.57485 12.3441 3.28068C19.2859 1.80381 26.2227 6.30547 27.7055 13.2483C29.2035 20.2368 24.8516 27.0781 17.8945 28.6767C16.9246 28.9 15.9445 29.0015 14.9492 29.0015C13.0551 29.0015 11.1559 29.0015 9.26172 29.0015ZM16.6148 16.0244C15.523 16.0244 14.4566 16.0244 13.3953 16.0244C13.3953 18.1915 13.3953 20.3433 13.3953 22.4901C14.477 22.4901 15.5434 22.4901 16.6148 22.4901C16.6148 20.3332 16.6148 18.1864 16.6148 16.0244ZM16.6148 9.52312C15.523 9.52312 14.4617 9.52312 13.3902 9.52312C13.3902 10.6041 13.3902 11.6699 13.3902 12.7408C14.4719 12.7408 15.5434 12.7408 16.6148 12.7408C16.6148 11.6598 16.6148 10.5991 16.6148 9.52312Z" fill="currentColor"/>
</g>
<defs>
<clipPath id="clip0_3033_9800">
<rect width="26" height="26" fill="currentColor" transform="translate(2 3)"/>
</clipPath>
</defs>
</svg>
