<svg width="30" height="32" viewBox="0 0 30 32" fill="none" xmlns="http://www.w3.org/2000/svg">
<path d="M15 4C21.6274 4 27 9.37258 27 16C27 22.6274 21.6274 28 15 28C8.37258 28 3 22.6274 3 16C3 9.37258 8.37258 4 15 4ZM10 14C8.89543 14 8 14.8954 8 16C8 17.1046 8.89543 18 10 18C11.1046 18 12 17.1046 12 16C12 14.8954 11.1046 14 10 14ZM15 14C13.8954 14 13 14.8954 13 16C13 17.1046 13.8954 18 15 18C16.1046 18 17 17.1046 17 16C17 14.8954 16.1046 14 15 14ZM20 14C18.8954 14 18 14.8954 18 16C18 17.1046 18.8954 18 20 18C21.1046 18 22 17.1046 22 16C22 14.8954 21.1046 14 20 14Z" fill="currentColor"/>
</svg>
