<svg width="31" height="32" viewBox="0 0 31 32" fill="none" xmlns="http://www.w3.org/2000/svg">
<path d="M3.5 4C3.5 7.1826 4.76428 10.2348 7.01472 12.4853C9.26515 14.7357 12.3174 16 15.5 16C18.6826 16 21.7348 14.7357 23.9853 12.4853C26.2357 10.2348 27.5 7.1826 27.5 4L15.5 4L3.5 4Z" fill="currentColor"/>
<path d="M27.5 28C27.5 24.8174 26.2357 21.7652 23.9853 19.5147C21.7348 17.2643 18.6826 16 15.5 16C12.3174 16 9.26516 17.2643 7.01472 19.5147C4.76428 21.7652 3.5 24.8174 3.5 28L15.5 28H27.5Z" fill="currentColor"/>
</svg>
