<svg width="30" height="32" viewBox="0 0 30 32" fill="none" xmlns="http://www.w3.org/2000/svg">
<path d="M14.0246 4.31825C14.2594 3.27869 15.7406 3.27869 15.9754 4.31824L17.0267 8.97246C17.1789 9.6462 17.9521 9.96645 18.5361 9.59766L22.5705 7.05002C23.4716 6.48098 24.519 7.52836 23.95 8.42948L21.4023 12.4639C21.0335 13.0479 21.3538 13.8211 22.0275 13.9733L26.6818 15.0246C27.7213 15.2594 27.7213 16.7406 26.6818 16.9754L22.0275 18.0267C21.3538 18.1789 21.0336 18.9521 21.4023 19.5361L23.95 23.5705C24.519 24.4716 23.4716 25.519 22.5705 24.95L18.5361 22.4023C17.9521 22.0335 17.1789 22.3538 17.0267 23.0275L15.9754 27.6818C15.7406 28.7213 14.2594 28.7213 14.0246 27.6818L12.9733 23.0275C12.8211 22.3538 12.0479 22.0336 11.4639 22.4023L7.42948 24.95C6.52836 25.519 5.48099 24.4716 6.05002 23.5705L8.59766 19.5361C8.96645 18.9521 8.6462 18.1789 7.97246 18.0267L3.31825 16.9754C2.27869 16.7406 2.27869 15.2594 3.31824 15.0246L7.97246 13.9733C8.6462 13.8211 8.96645 13.0479 8.59766 12.4639L6.05002 8.42948C5.48099 7.52836 6.52836 6.48099 7.42948 7.05002L11.4639 9.59766C12.0479 9.96645 12.8211 9.6462 12.9733 8.97246L14.0246 4.31825Z" fill="currentColor"/>
</svg>
