<svg width="30" height="32" viewBox="0 0 30 32" fill="none" xmlns="http://www.w3.org/2000/svg">
<path d="M1 6.91206C1 5.5085 2.40795 4.54152 3.71796 5.04537L12.718 8.50691C13.4903 8.80398 14 9.54605 14 10.3736V26.0879C14 27.4915 12.592 28.4585 11.282 27.9546L2.28204 24.4931C1.50966 24.196 1 23.4539 1 22.6264V6.91206Z" fill="currentColor"/>
<path d="M29 6.91206C29 5.5085 27.592 4.54152 26.282 5.04537L17.282 8.50691C16.5097 8.80398 16 9.54605 16 10.3736V26.0879C16 27.4915 17.408 28.4585 18.718 27.9546L27.718 24.4931C28.4903 24.196 29 23.4539 29 22.6264V6.91206Z" fill="currentColor"/>
</svg>
