<svg width="32" height="32" viewBox="0 0 32 32" fill="none" xmlns="http://www.w3.org/2000/svg">
<path d="M18.4313 25.0872V29.5671C18.4313 30.8983 17.3305 31.9991 15.9993 31.9991C14.6682 31.9991 13.5674 30.8983 13.5674 29.5671V25.0872L15.9993 20.8633L18.4313 25.0872Z" fill="currentColor"/>
<path d="M18.4313 2.43195V6.91187L15.9993 11.1102L13.5674 6.91187V2.43195C13.5674 1.10078 14.6682 0 15.9993 0C16.6649 0 17.2793 0.281595 17.7145 0.716787C18.1753 1.15198 18.4313 1.76637 18.4313 2.43195Z" fill="currentColor"/>
<path d="M13.5685 6.91287V11.7768L9.3446 9.34483L7.09184 5.4537C6.42625 4.27612 6.81024 2.79135 7.98782 2.12576C8.37181 1.89537 8.78141 1.79297 9.191 1.79297C10.0358 1.79297 10.855 2.22816 11.2902 3.02175L13.5685 6.91287Z" fill="currentColor"/>
<path d="M24.0123 29.8463C22.8604 30.5119 21.35 30.1279 20.6844 28.9503L18.4316 25.0592V20.1953L22.6556 22.6273L24.8827 26.5184C25.5739 27.696 25.1643 29.1807 24.0123 29.8463Z" fill="currentColor"/>
<path d="M11.8008 13.5673H6.93687L3.04574 11.3145C1.89376 10.6489 1.48417 9.16417 2.14976 7.98659C2.61055 7.19301 3.42973 6.75781 4.24892 6.75781C4.65851 6.75781 5.09371 6.86021 5.4777 7.09061L9.36883 9.34336L11.8008 13.5673Z" fill="currentColor"/>
<path d="M29.8473 23.9869C29.1817 25.1645 27.697 25.5485 26.5194 24.8829L22.6282 22.6302L20.1963 18.4062H25.0602L28.9513 20.659C30.1289 21.3502 30.5385 22.835 29.8473 23.9869Z" fill="currentColor"/>
<path d="M11.1358 16.0023L6.91188 18.4342H2.43196C1.10078 18.4342 0 17.3334 0 16.0023C0 15.3367 0.281596 14.7223 0.716788 14.2871C1.15198 13.8519 1.76637 13.5703 2.43196 13.5703H6.91188L11.1358 16.0023Z" fill="currentColor"/>
<path d="M32.0001 16.0023C32.0001 17.359 30.8993 18.4342 29.5681 18.4342H25.0882L20.8643 16.0023L25.0882 13.5703H29.5681C30.9249 13.5703 32.0001 14.6455 32.0001 16.0023Z" fill="currentColor"/>
<path d="M11.8012 18.4336L9.36925 22.6575L5.47812 24.9103C4.32614 25.5759 2.81577 25.1919 2.15018 24.0143C1.91978 23.6303 1.81738 23.2207 1.81738 22.8111C1.81738 21.9663 2.25258 21.1471 3.04616 20.712L6.93729 18.4592H11.8012V18.4336Z" fill="currentColor"/>
<path d="M28.9787 11.3148L25.0875 13.5675H20.2236L22.6556 9.34361L26.5467 7.09086C27.6987 6.42527 29.2091 6.80926 29.8747 7.98684C30.5403 9.16442 30.1307 10.6492 28.9787 11.3148Z" fill="currentColor"/>
<path d="M13.5673 20.2266V25.0905L11.3145 28.9816C10.6489 30.1336 9.16417 30.5432 7.98659 29.8776C7.21861 29.4168 6.75781 28.5976 6.75781 27.7784C6.75781 27.3688 6.86021 26.9336 7.09061 26.5496L9.34337 22.6585L13.5673 20.2266Z" fill="currentColor"/>
<path d="M24.882 5.47574L22.6292 9.36686L18.4053 11.7988V6.93491L20.658 3.04379C21.3236 1.89181 22.8084 1.48221 23.986 2.1478C25.1636 2.81339 25.5732 4.29816 24.882 5.47574Z" fill="currentColor"/>
</svg>
