<svg width="21" height="21" viewBox="0 0 21 21" fill="none" xmlns="http://www.w3.org/2000/svg">
<path fill-rule="evenodd" clip-rule="evenodd" d="M12.4179 9.79289C12.8084 9.40237 13.4416 9.40237 13.8321 9.79289L17.7696 13.7304C18.1601 14.1209 18.1601 14.7541 17.7696 15.1446L13.8321 19.0821C13.4416 19.4726 12.8084 19.4726 12.4179 19.0821C12.0274 18.6916 12.0274 18.0584 12.4179 17.6679L15.6483 14.4375L12.4179 11.2071C12.0274 10.8166 12.0274 10.1834 12.4179 9.79289Z" fill="#1F1F1F"/>
<path fill-rule="evenodd" clip-rule="evenodd" d="M5.25 1.625C5.80228 1.625 6.25 2.07272 6.25 2.625L6.25 12.4375C6.25 12.9898 6.69772 13.4375 7.25 13.4375L17.0625 13.4375C17.6148 13.4375 18.0625 13.8852 18.0625 14.4375C18.0625 14.9898 17.6148 15.4375 17.0625 15.4375L7.25 15.4375C5.59315 15.4375 4.25 14.0944 4.25 12.4375L4.25 2.625C4.25 2.07272 4.69772 1.625 5.25 1.625Z" fill="#1F1F1F"/>
</svg>
