<svg width="53" height="35" viewBox="0 0 53 35" fill="none" xmlns="http://www.w3.org/2000/svg">
<path d="M17.5 0C15.2019 -2.7405e-08 12.9262 0.452651 10.803 1.33211C8.67984 2.21157 6.75066 3.50061 5.12563 5.12563C3.50061 6.75066 2.21157 8.67984 1.33211 10.803C0.452651 12.9262 -7.30496e-08 15.2019 0 17.5C7.30496e-08 19.7981 0.452651 22.0738 1.33211 24.197C2.21157 26.3202 3.50061 28.2493 5.12563 29.8744C6.75066 31.4994 8.67984 32.7884 10.803 33.6679C12.9262 34.5473 15.2019 35 17.5 35L17.5 17.5L17.5 0Z" fill="#1F1F1F"/>
<rect x="18" width="35" height="35" rx="17.5" fill="#FF8200"/>
</svg>
