<svg width="51" height="60" viewBox="0 0 51 60" fill="none" xmlns="http://www.w3.org/2000/svg">
<path d="M50.4348 50.4347C50.4348 43.7466 47.778 37.3325 43.0488 32.6033C38.3196 27.8741 31.9055 25.2173 25.2174 25.2173C18.5293 25.2173 12.1152 27.8741 7.386 32.6033C2.65683 37.3325 1.00987e-06 43.7466 0 50.4347L25.2174 50.4347L50.4348 50.4347Z" fill="#1F1F1F"/>
<path d="M-0.00118798 -0.000109313C-0.00118857 6.68796 2.65564 13.1021 7.38481 17.8313C12.114 22.5605 18.5281 25.2173 25.2162 25.2173C31.9043 25.2173 38.3184 22.5605 43.0476 17.8313C47.7768 13.1021 50.4336 6.68797 50.4336 -0.000101089L25.2162 -0.000107109L-0.00118798 -0.000109313Z" fill="#FF8200"/>
<circle cx="25.2176" cy="50.4348" r="9.56522" fill="#0536FC"/>
</svg>
