<svg width="34" height="40" viewBox="0 0 34 40" fill="none" xmlns="http://www.w3.org/2000/svg">
<path d="M33.6232 33.6241C33.6232 29.1654 31.852 24.8893 28.6992 21.7365C25.5464 18.5837 21.2703 16.8125 16.8116 16.8125C12.3529 16.8125 8.07679 18.5837 4.924 21.7365C1.77122 24.8893 6.73247e-07 29.1654 0 33.6241L16.8116 33.6241H33.6232Z" fill="#1F1F1F"/>
<path d="M-0.000143489 0.000903051C-0.000143879 4.45961 1.77107 8.73571 4.92386 11.8885C8.07664 15.0413 12.3527 16.8125 16.8114 16.8125C21.2702 16.8125 25.5463 15.0413 28.699 11.8885C31.8518 8.73571 33.623 4.45962 33.623 0.000907898L16.8115 0.000904521L-0.000143489 0.000903051Z" fill="#FF8200"/>
<circle cx="16.8114" cy="33.6229" r="6.37681" fill="#0536FC"/>
</svg>
