<svg width="66" height="66" viewBox="0 0 66 66" fill="none" xmlns="http://www.w3.org/2000/svg">
<path d="M0 49.5C0 40.3873 7.3873 33 16.5 33C25.6127 33 33 40.3873 33 49.5C33 58.6127 25.6127 66 16.5 66C7.3873 66 0 58.6127 0 49.5Z" fill="#FF8200"/>
<path d="M33 16.5C33 7.3873 40.3873 0 49.5 0C58.6127 0 66 7.3873 66 16.5C66 25.6127 58.6127 33 49.5 33C40.3873 33 33 25.6127 33 16.5Z" fill="#1F1F1F"/>
<path d="M0 16.5C0 7.3873 7.3873 0 16.5 0C25.6127 0 33 7.3873 33 16.5C33 25.6127 25.6127 33 16.5 33C7.3873 33 0 25.6127 0 16.5Z" fill="#0536FC"/>
</svg>
