<svg width="63" height="25" viewBox="0 0 63 25" fill="none" xmlns="http://www.w3.org/2000/svg">
<rect x="38" width="25" height="25" fill="#1F1F1F"/>
<g clip-path="url(#clip0_1383_27153)">
<path d="M13.5 0C11.8585 -1.9575e-08 10.233 0.323322 8.71646 0.951506C7.19989 1.57969 5.8219 2.50043 4.66117 3.66117C3.50043 4.8219 2.57969 6.19989 1.95151 7.71646C1.32332 9.23303 1 10.8585 1 12.5C1 14.1415 1.32332 15.767 1.95151 17.2835C2.57969 18.8001 3.50043 20.1781 4.66117 21.3388C5.8219 22.4996 7.19989 23.4203 8.71646 24.0485C10.233 24.6767 11.8585 25 13.5 25L13.5 12.5V0Z" fill="#0536FC"/>
</g>
<rect x="13" width="25" height="25" rx="12.5" fill="#FF8200"/>
<defs>
<clipPath id="clip0_1383_27153">
<rect width="12" height="25" fill="white" transform="translate(1)"/>
</clipPath>
</defs>
</svg>
