<svg width="51" height="25" viewBox="0 0 51 25" fill="none" xmlns="http://www.w3.org/2000/svg">
<g clip-path="url(#clip0_1383_27161)">
<path d="M14.5 0C12.8585 -1.9575e-08 11.233 0.323322 9.71646 0.951506C8.19989 1.57969 6.8219 2.50043 5.66117 3.66117C4.50043 4.8219 3.57969 6.19989 2.95151 7.71646C2.32332 9.23303 2 10.8585 2 12.5C2 14.1415 2.32332 15.767 2.95151 17.2835C3.57969 18.8001 4.50043 20.1781 5.66117 21.3388C6.8219 22.4996 8.19989 23.4203 9.71646 24.0485C11.233 24.6767 12.8585 25 14.5 25L14.5 12.5V0Z" fill="#0536FC"/>
</g>
<g clip-path="url(#clip1_1383_27161)">
<path d="M38.2148 25C39.8564 25 41.4818 24.6767 42.9984 24.0485C44.515 23.4203 45.8929 22.4996 47.0537 21.3388C48.2144 20.1781 49.1352 18.8001 49.7633 17.2835C50.3915 15.767 50.7148 14.1415 50.7148 12.5C50.7148 10.8585 50.3915 9.23303 49.7633 7.71646C49.1352 6.19989 48.2144 4.8219 47.0537 3.66116C45.8929 2.50043 44.515 1.57969 42.9984 0.951505C41.4818 0.323321 39.8564 -9.49278e-07 38.2148 -1.09278e-06L38.2148 12.5L38.2148 25Z" fill="#1F1F1F"/>
</g>
<rect x="14" width="25" height="25" rx="12.5" fill="#FF8200"/>
<defs>
<clipPath id="clip0_1383_27161">
<rect width="12" height="25" fill="white" transform="translate(2)"/>
</clipPath>
<clipPath id="clip1_1383_27161">
<rect width="12" height="25" fill="white" transform="translate(39)"/>
</clipPath>
</defs>
</svg>
