<svg width="30" height="30" viewBox="0 0 30 30" fill="none" xmlns="http://www.w3.org/2000/svg">
<circle cx="15" cy="15" r="15" fill="#FF8200"/>
<g clip-path="url(#clip0_3020_5581)">
<path d="M14.7513 11.8814C15.2639 11.8814 15.7708 11.8757 16.2834 11.8814C16.8405 11.8872 17.002 12.1046 16.8683 12.654C16.3168 14.9201 15.7541 17.1919 15.2082 19.4637C15.1302 19.7784 15.0967 20.0989 15.0689 20.4194C15.0466 20.694 15.1023 20.9687 15.3753 21.1003C15.665 21.2434 15.9658 21.1804 16.1775 20.963C16.3948 20.7398 16.5563 20.4537 16.7346 20.1905C16.8238 20.0588 16.8795 19.8986 16.9742 19.7727C17.1469 19.5438 17.4366 19.4923 17.6761 19.6182C17.9045 19.7384 18.055 20.0073 17.977 20.2649C17.665 21.3121 16.9463 22.6626 15.5313 22.9315C14.9853 23.0345 14.4394 23.0345 13.9045 22.8743C12.8516 22.5596 12.2667 21.581 12.4171 20.2877C12.4951 19.6125 12.6511 18.943 12.8015 18.2734C13.0522 17.1633 13.3307 16.0588 13.5981 14.9487C13.7263 14.4051 13.5591 14.1762 13.0132 14.1647C12.807 14.159 12.6009 14.1704 12.4004 14.1475C12.1218 14.1189 11.9491 13.8843 12.0104 13.6039C12.094 13.2262 12.1887 12.8428 12.3001 12.4709C12.4171 12.0932 12.7235 11.8872 13.1636 11.8814C13.6928 11.8757 14.2221 11.8814 14.7513 11.8814Z" fill="white"/>
<path d="M14.3184 8.67681C14.3184 7.74405 15.0593 6.98868 15.9674 7.00013C16.881 7.01157 17.622 7.77266 17.6164 8.69398C17.6053 9.60385 16.8699 10.3478 15.9674 10.3535C15.0593 10.3592 14.3184 9.60385 14.3184 8.67681Z" fill="white"/>
</g>
<defs>
<clipPath id="clip0_3020_5581">
<rect width="6" height="16" fill="white" transform="translate(12 7)"/>
</clipPath>
</defs>
</svg>
