<svg width="20" height="20" viewBox="0 0 20 20" fill="none" xmlns="http://www.w3.org/2000/svg">
<g clip-path="url(#clip0_1383_30913)">
<path d="M9.9987 0.832031C12.4893 0.832031 12.8 0.841198 13.7772 0.887031C14.7534 0.932865 15.418 1.08595 16.0029 1.31328C16.6079 1.54611 17.1175 1.86145 17.6272 2.3702C18.0933 2.82844 18.454 3.38274 18.6841 3.99453C18.9105 4.57845 19.0645 5.24395 19.1104 6.2202C19.1534 7.19736 19.1654 7.50811 19.1654 9.9987C19.1654 12.4893 19.1562 12.8 19.1104 13.7772C19.0645 14.7534 18.9105 15.418 18.6841 16.0029C18.4547 16.615 18.0939 17.1694 17.6272 17.6272C17.1688 18.0932 16.6146 18.4538 16.0029 18.6841C15.4189 18.9105 14.7534 19.0645 13.7772 19.1104C12.8 19.1534 12.4893 19.1654 9.9987 19.1654C7.50811 19.1654 7.19736 19.1562 6.2202 19.1104C5.24395 19.0645 4.57936 18.9105 3.99453 18.6841C3.3825 18.4545 2.8281 18.0937 2.3702 17.6272C1.90399 17.169 1.5433 16.6147 1.31328 16.0029C1.08595 15.4189 0.932865 14.7534 0.887031 13.7772C0.843948 12.8 0.832031 12.4893 0.832031 9.9987C0.832031 7.50811 0.841198 7.19736 0.887031 6.2202C0.932865 5.24303 1.08595 4.57936 1.31328 3.99453C1.54266 3.38236 1.90343 2.82791 2.3702 2.3702C2.82823 1.90383 3.38259 1.54312 3.99453 1.31328C4.57936 1.08595 5.24303 0.932865 6.2202 0.887031C7.19736 0.843948 7.50811 0.832031 9.9987 0.832031ZM9.9987 5.41536C8.78312 5.41536 7.61733 5.89825 6.75779 6.75779C5.89825 7.61733 5.41536 8.78312 5.41536 9.9987C5.41536 11.2143 5.89825 12.3801 6.75779 13.2396C7.61733 14.0991 8.78312 14.582 9.9987 14.582C11.2143 14.582 12.3801 14.0991 13.2396 13.2396C14.0991 12.3801 14.582 11.2143 14.582 9.9987C14.582 8.78312 14.0991 7.61733 13.2396 6.75779C12.3801 5.89825 11.2143 5.41536 9.9987 5.41536ZM15.957 5.1862C15.957 4.8823 15.8363 4.59086 15.6214 4.37597C15.4065 4.16109 15.1151 4.04036 14.8112 4.04036C14.5073 4.04036 14.2159 4.16109 14.001 4.37597C13.7861 4.59086 13.6654 4.8823 13.6654 5.1862C13.6654 5.49009 13.7861 5.78154 14.001 5.99642C14.2159 6.21131 14.5073 6.33203 14.8112 6.33203C15.1151 6.33203 15.4065 6.21131 15.6214 5.99642C15.8363 5.78154 15.957 5.49009 15.957 5.1862ZM9.9987 7.2487C10.728 7.2487 11.4275 7.53843 11.9432 8.05415C12.459 8.56988 12.7487 9.26935 12.7487 9.9987C12.7487 10.728 12.459 11.4275 11.9432 11.9432C11.4275 12.459 10.728 12.7487 9.9987 12.7487C9.26935 12.7487 8.56988 12.459 8.05415 11.9432C7.53843 11.4275 7.2487 10.728 7.2487 9.9987C7.2487 9.26935 7.53843 8.56988 8.05415 8.05415C8.56988 7.53843 9.26935 7.2487 9.9987 7.2487Z" fill="currentColor"/>
</g>
<defs>
<clipPath id="clip0_1383_30913">
<rect width="20" height="20" fill="white"/>
</clipPath>
</defs>
</svg>
