<svg width="20" height="20" viewBox="0 0 20 20" fill="none" xmlns="http://www.w3.org/2000/svg">
<path d="M2.00492 7.26063H5.52098V17.8416H2.00492V7.26063ZM3.78648 2.16016C2.58309 2.16016 1.79688 2.9502 1.79688 3.98715C1.79688 5.00277 2.56008 5.81578 3.74047 5.81578H3.76289C4.9893 5.81578 5.75305 5.00273 5.75305 3.98715C5.73004 2.9502 4.98934 2.16016 3.78648 2.16016ZM14.1539 7.01207C12.2875 7.01207 11.4514 8.03863 10.9849 8.75855V7.26063H7.46781C7.51437 8.25324 7.46781 17.8416 7.46781 17.8416H10.9849V11.9324C10.9849 11.6159 11.0079 11.3006 11.1005 11.0739C11.3551 10.4421 11.9338 9.78785 12.9045 9.78785C14.178 9.78785 14.6866 10.7586 14.6866 12.1804V17.8415H18.2031V11.7742C18.2031 8.52426 16.4687 7.01207 14.1539 7.01207Z" fill="currentColor"/>
</svg>
