<svg width="73" height="88" viewBox="0 0 73 88" fill="none" xmlns="http://www.w3.org/2000/svg">
<g clip-path="url(#clip0_1383_32884)">
<path d="M47.9089 37.2537L55.0554 66.1419L44.8595 68.7084L38.4494 42.804L33.8545 43.8055L35.9186 32.6008L38.9576 31.8392C42.9095 30.8481 46.9235 33.2684 47.9089 37.2537Z" fill="#D1D4D4"/>
<path d="M37.2461 42.8045L29.6018 45.1101L27.0605 34.8339L36.8727 32.3613L37.2461 42.8045Z" fill="#1F1F1F"/>
<path d="M42.0898 62.0104L45.2949 72.0676L62.1498 64.8586C63.6642 64.2117 64.8466 62.9389 65.386 61.374L68.6843 51.8072C63.6123 50.0337 61.32 53.1218 60.4799 54.8432C60.1376 55.5526 59.5464 56.1159 58.8307 56.4289L56.0198 55.0518L42.0898 62.0104Z" fill="#FFC07F"/>
<path d="M60.2 55.8448C60.1481 55.8448 60.0963 55.824 60.0548 55.7927C59.9614 55.7092 59.9407 55.5632 60.0237 55.4693C60.1792 55.2815 60.3037 55.0833 60.4178 54.8642C61.6002 52.4542 64.017 49.9191 68.7675 51.5883C68.8816 51.63 68.9542 51.7656 68.9127 51.8804C68.8712 51.9952 68.7364 52.0682 68.6223 52.0265C65.1061 50.7954 62.4093 51.8491 60.8327 55.0624C60.7082 55.3128 60.563 55.5423 60.3867 55.7614C60.3348 55.8135 60.2726 55.8448 60.2 55.8448Z" fill="#1F1F1F"/>
<path d="M68.6942 51.8059L65.3958 61.3727C64.8564 62.9376 63.6844 64.2104 62.1596 64.8572L45.3047 72.0662L45.0661 72.1705C44.5683 72.4 44.3297 72.9738 44.506 73.4955L45.2943 75.4464C45.5018 76.0411 46.1552 76.3227 46.7257 76.0724L64.7112 68.1331C66.8583 67.1837 68.5282 65.3684 69.2957 63.1358L72.7186 53.2143C72.9053 52.6718 72.6252 52.0875 72.0859 51.8997L70.0011 51.1695C69.4617 50.9817 68.8809 51.2634 68.6942 51.8059Z" fill="white"/>
<path d="M46.2904 76.3862C46.114 76.3862 45.9377 76.3549 45.7717 76.2819C45.4398 76.1358 45.1805 75.8541 45.0664 75.5203L44.2781 73.5902C44.0603 72.9434 44.3507 72.2548 44.9523 71.9731L45.2013 71.8688L62.0562 64.6598C63.5083 64.0338 64.6493 62.8132 65.1679 61.3109L68.4663 51.7441C68.5804 51.4207 68.7982 51.1703 69.1093 51.0242C69.4101 50.8782 69.7524 50.8573 70.0636 50.9721L72.1484 51.7024C72.8019 51.9319 73.1442 52.6517 72.916 53.309L69.4931 63.2305C68.7048 65.5153 66.983 67.3932 64.7841 68.3634L46.7986 76.3027C46.643 76.3549 46.4667 76.3862 46.2904 76.3862ZM68.9123 51.8797L65.6035 61.4465C65.0434 63.074 63.8195 64.399 62.2429 65.0667L45.1494 72.38C44.7656 72.5574 44.5789 73.006 44.7138 73.4129L45.5021 75.3429C45.585 75.5829 45.7406 75.7602 45.9584 75.8541C46.1763 75.948 46.4148 75.948 46.6223 75.8541L64.6182 67.9252C66.703 67.0072 68.3314 65.2336 69.0782 63.0636L72.5011 53.1421C72.6463 52.7248 72.4285 52.2657 72.0136 52.1197L69.9288 51.3894C69.7317 51.3164 69.5139 51.3268 69.3168 51.4207C69.1197 51.5146 68.9745 51.6815 68.9123 51.8797Z" fill="#1F1F1F"/>
<path d="M50.1486 69.99C49.3499 68.4251 47.9808 67.1523 46.1968 66.5368C45.2736 66.2133 44.3298 66.0986 43.417 66.1507L45.3047 72.0661L50.1486 69.99Z" fill="#1F1F1F"/>
<path d="M62.1497 61.7916C62.0564 61.7916 61.963 61.729 61.9319 61.6351L59.9923 55.7093C59.9508 55.5841 60.013 55.4589 60.1375 55.4172C60.262 55.3754 60.3864 55.438 60.4279 55.5632L62.3675 61.489C62.409 61.6142 62.3468 61.7394 62.2223 61.7811C62.2016 61.7916 62.1808 61.7916 62.1497 61.7916Z" fill="#1F1F1F"/>
<path d="M58.6643 61.9368C58.5399 61.9368 58.4465 61.8429 58.4361 61.7177L58.2391 58.5044C58.2287 58.3792 58.322 58.2645 58.4569 58.2645C58.571 58.254 58.6954 58.3479 58.6954 58.4835L58.8925 61.6968C58.9029 61.822 58.8095 61.9368 58.6747 61.9368C58.6747 61.9368 58.6747 61.9368 58.6643 61.9368Z" fill="#1F1F1F"/>
<path d="M39.3925 42.8027H37.2454H36.26H27.1221V53.3919H36.26V80.0163H46.7671V53.3919V52.4008V50.2308C46.7671 46.1308 43.4688 42.8027 39.3925 42.8027Z" fill="#D1D4D4"/>
<path d="M37.0591 42.8047H27.1328V53.3939H35.7522L37.0591 42.8047Z" fill="#1F1F1F"/>
<path d="M46.7678 80.2468H36.2607C36.1362 80.2468 36.0325 80.1424 36.0325 80.0173V53.6225H27.1227C26.9983 53.6225 26.8945 53.5181 26.8945 53.3929V42.8037C26.8945 42.6785 26.9983 42.5742 27.1227 42.5742H39.3827C43.5731 42.5742 46.9856 46.017 46.9856 50.2423V80.0173C46.996 80.1424 46.8923 80.2468 46.7678 80.2468ZM36.4889 79.7877H46.5396V50.2423C46.5396 46.2674 43.3346 43.0333 39.3931 43.0333H27.3613V53.1634H36.2711C36.3955 53.1634 36.4992 53.2678 36.4992 53.3929V79.7877H36.4889Z" fill="#1F1F1F"/>
<path d="M64.8057 83.0961V80.7174C64.8057 78.9438 63.5092 77.4415 61.7667 77.1911L56.8917 76.5026C56.1138 76.3878 55.3877 76.0853 54.755 75.6158L53.6452 74.8438C51.2388 73.1745 50.6476 70.848 50.5128 70.5977H34.6639L33.6475 82.9396L64.8057 83.0961Z" fill="#FFC07F"/>
<path d="M65.0338 83.3253L33.3984 83.1688L34.4564 70.3574H50.6475L50.7097 70.4722C50.7409 70.5243 50.7616 70.5869 50.8031 70.7121C51.0417 71.3381 51.747 73.2473 53.7696 74.6453L54.8794 75.4173C55.481 75.8659 56.1863 76.158 56.9124 76.2623L61.7873 76.9509C63.6336 77.2117 65.0235 78.8288 65.0235 80.7067V83.3253H65.0338ZM33.8963 82.7098L64.5775 82.8663V80.7171C64.5775 79.0687 63.3535 77.6499 61.7355 77.4204L56.8605 76.7318C56.0515 76.6171 55.2735 76.2936 54.6201 75.8033L53.5206 75.0417C51.3839 73.5603 50.6268 71.5467 50.3882 70.8895C50.3778 70.8686 50.3778 70.8478 50.3675 70.8269H34.8817L33.8963 82.7098Z" fill="#1F1F1F"/>
<path d="M33.5643 82.8457C33.1287 82.8457 32.776 83.2004 32.776 83.6386L32.7656 86.904C32.7656 87.3839 33.1494 87.7699 33.6162 87.7699H64.7952C65.5316 87.7699 66.1332 87.1649 66.1332 86.4137V84.202C66.1332 83.4508 65.5316 82.8457 64.7952 82.8457H33.5643Z" fill="white"/>
<path d="M64.8056 87.9985H33.6266C33.025 87.9985 32.5479 87.5082 32.5479 86.9031L32.5582 83.6376C32.5582 83.0743 33.0146 82.6152 33.5747 82.6152H64.816C64.8263 82.6152 64.8263 82.6152 64.8367 82.6152C65.6976 82.6257 66.3926 83.3351 66.3926 84.201V86.4127C66.3718 87.2891 65.6665 87.9985 64.8056 87.9985ZM33.5643 83.0743C33.2532 83.0743 33.0042 83.3247 33.0042 83.6376L32.9939 86.9031C32.9939 87.2474 33.2739 87.529 33.6162 87.529H64.7952C65.4072 87.529 65.9051 87.0283 65.9051 86.4023V84.1906C65.9051 83.575 65.4072 83.0638 64.7952 83.0638C64.7849 83.0638 64.7849 83.0638 64.7745 83.0638H33.5643V83.0743Z" fill="#1F1F1F"/>
<path d="M64.8153 83.0751H64.8049C64.6805 83.0647 64.5871 82.9604 64.5871 82.8352L64.6909 81.0929C64.7946 79.3402 63.5706 77.8171 61.8385 77.5458L55.9885 76.6486C55.9574 76.6486 55.9159 76.659 55.9055 76.6903L52.8872 81.3224C52.8146 81.4268 52.6798 81.4581 52.5657 81.385C52.4619 81.312 52.4308 81.1764 52.5034 81.0616L55.5218 76.4295C55.6359 76.2521 55.8537 76.1582 56.0611 76.1895L61.9111 77.0868C63.8714 77.3893 65.2613 79.1211 65.1472 81.1138L65.0435 82.8561C65.0331 82.9813 64.9294 83.0751 64.8153 83.0751Z" fill="#1F1F1F"/>
<path d="M50.5128 77.3373C50.4298 77.3373 50.3572 77.2956 50.3157 77.2226C50.2535 77.1078 50.2846 76.9722 50.3987 76.9096L53.5933 75.0317C53.7074 74.9691 53.8423 75.0004 53.9045 75.1152C53.9667 75.2299 53.9356 75.3655 53.8215 75.4281L50.6269 77.306C50.5957 77.3269 50.5543 77.3373 50.5128 77.3373Z" fill="#1F1F1F"/>
<path d="M39.6212 83.0114C38.6047 78.88 35.6901 77.1273 34.1757 76.4805L33.6053 82.8653C33.4289 82.8653 39.6212 83.0114 39.6212 83.0114Z" fill="#1F1F1F"/>
<path d="M37.2982 44.3482L19.8832 48.73C12.4981 50.587 5.00935 46.0592 3.16309 38.6102L33.948 30.8691L37.2982 44.3482Z" fill="#0536FC"/>
<path d="M34.7776 54.5312H16.8439C9.22033 54.5312 3.04883 48.3132 3.04883 40.6556V40.6348H34.7776V54.5312Z" fill="#0536FC"/>
<path d="M27.9736 35.8762L28.9694 38.5887C28.9694 38.5887 32.2159 36.4917 33.0249 36.0014C33.1494 35.9075 34.0829 35.4902 34.8919 34.1861C34.9023 34.1548 35.7632 33.028 34.9853 31.7448L34.9645 31.7135C34.643 31.1815 33.8651 31.171 33.5332 31.7135C33.1494 32.3499 32.9005 32.8298 32.1951 33.268L27.9736 35.8762Z" fill="#D1D4D4"/>
<path d="M38.4289 20.8203H27.9736V28.8744H38.4289V20.8203Z" fill="#D1D4D4"/>
<path d="M28.9901 28.8744H27.9736V20.8203H30.7534L28.9901 28.8744Z" fill="#1F1F1F"/>
<path d="M38.4399 29.1049H27.9743C27.8498 29.1049 27.7461 29.0006 27.7461 28.8754V20.8213C27.7461 20.6961 27.8498 20.5918 27.9743 20.5918H38.4295C38.554 20.5918 38.6577 20.6961 38.6577 20.8213V28.8754C38.6681 29.0006 38.5644 29.1049 38.4399 29.1049ZM28.2128 28.6459H38.2117V21.0508H28.2128V28.6459Z" fill="#1F1F1F"/>
<path d="M28.607 19.9668H25.6302H20.9004H8.10106C3.75509 19.9668 0.228516 23.5244 0.228516 27.9061V40.9887H25.6302V30.4725H28.607V19.9668Z" fill="#FFC07F"/>
<path d="M25.6299 41.2075H0.22819C0.103723 41.2075 0 41.1032 0 40.978V27.8954C0 23.3884 3.63029 19.7266 8.10074 19.7266H28.6067C28.7312 19.7266 28.8349 19.8309 28.8349 19.9561V30.4618C28.8349 30.587 28.7312 30.6914 28.6067 30.6914H25.8581V40.9676C25.8581 41.1032 25.7543 41.2075 25.6299 41.2075ZM0.45638 40.7485H25.4017V30.4723C25.4017 30.3471 25.5054 30.2427 25.6299 30.2427H28.3785V20.196H8.10074C3.8896 20.196 0.45638 23.6493 0.45638 27.9058V40.7485Z" fill="#1F1F1F"/>
<path d="M25.6298 30.7013C25.5157 30.7013 25.412 30.6074 25.4016 30.4926L25.1941 28.0305C25.1838 27.9053 25.2771 27.7905 25.4016 27.7801C25.5261 27.7697 25.6402 27.8636 25.6505 27.9887L25.858 30.4509C25.8683 30.5761 25.775 30.6908 25.6505 30.7013C25.6402 30.7013 25.6402 30.7013 25.6298 30.7013Z" fill="#1F1F1F"/>
<path d="M46.8823 47.3326L31.4795 43.2221V15.6797L46.8823 19.7902V47.3326Z" fill="white"/>
<path d="M46.8824 47.5621C46.8616 47.5621 46.8409 47.5621 46.8201 47.5517L31.4277 43.4516C31.324 43.4203 31.2617 43.3369 31.2617 43.2325V15.6902C31.2617 15.6171 31.2928 15.5545 31.3551 15.5128C31.4069 15.4711 31.4795 15.4502 31.5521 15.4711L46.955 19.5816C47.0587 19.6129 47.1209 19.6963 47.1209 19.8007V47.343C47.1209 47.4161 47.0898 47.4787 47.0276 47.5204C46.9861 47.5517 46.9342 47.5621 46.8824 47.5621ZM31.7077 43.0448L46.6542 47.0301V19.9676L31.7077 15.9823V43.0448Z" fill="#1F1F1F"/>
<path d="M46.8818 47.3317L54.5262 39.1107V11.5684L46.8818 19.7893V47.3317Z" fill="white"/>
<path d="M46.8825 47.5614C46.8514 47.5614 46.8306 47.5509 46.7995 47.5405C46.7165 47.5092 46.6543 47.4257 46.6543 47.3214V19.779C46.6543 19.7164 46.675 19.6643 46.7165 19.6225L54.3505 11.4016C54.4128 11.3285 54.5165 11.3077 54.5995 11.3494C54.6824 11.3807 54.7447 11.4642 54.7447 11.5685V39.1109C54.7447 39.1735 54.7239 39.2256 54.6824 39.2674L47.0484 47.4883C47.007 47.5405 46.9447 47.5614 46.8825 47.5614ZM47.1107 19.8834V46.7476L54.2883 39.017V12.1527L47.1107 19.8834Z" fill="#1F1F1F"/>
<path d="M33.2531 37.5586L32.3818 39.7808L35.6698 41.0849L35.4313 41.69L36.3752 42.0655C37.1531 42.3785 38.0243 41.9925 38.3355 41.21C38.6467 40.4276 38.2629 39.5408 37.485 39.2383L33.2531 37.5586Z" fill="#D1D4D4"/>
<path d="M32.8693 39.9668L31.998 42.189L35.2861 43.4931L35.0475 44.0982L36.0432 44.4946C36.79 44.7971 37.6406 44.4216 37.9414 43.66L37.9828 43.5661C38.2836 42.8149 37.9102 41.9594 37.1634 41.6569L32.8693 39.9668Z" fill="#D1D4D4"/>
<path d="M31.3849 41.9492L30.5137 44.1714L33.8017 45.4755L33.5631 46.0806L34.5589 46.477C35.3057 46.7796 36.1562 46.404 36.457 45.6424L36.4985 45.5485C36.7993 44.7974 36.4259 43.9419 35.6791 43.6393L31.3849 41.9492Z" fill="#D1D4D4"/>
<path d="M30.0168 43.9746L29.1455 46.1968L32.4335 47.5009L32.1327 48.2729C31.9668 48.7006 32.1742 49.1805 32.5995 49.3475C33.4707 49.6917 34.4561 49.264 34.8088 48.3772L35.037 47.8034C35.3792 46.9271 34.954 45.9255 34.0827 45.5812L30.0168 43.9746Z" fill="#D1D4D4"/>
<path d="M29.4876 36.0658C28.3466 35.6172 27.133 35.3877 25.9091 35.3981L14.5515 35.5128L9.33424 28.0117L1.86621 33.2907L6.86564 40.4788C8.31776 42.5654 10.693 43.7964 13.2238 43.7756L22.8493 43.6817L31.2301 47.0097L34.7048 38.121L29.4876 36.0658Z" fill="#D1D4D4"/>
<path d="M7.56058 32.3413C8.7534 32.8629 10.1537 31.7571 11.0975 30.5469L9.33424 28.0117L1.86621 33.2907L2.98642 34.9077C5.28906 32.2265 6.56485 31.9031 7.56058 32.3413Z" fill="#1F1F1F"/>
<path d="M36.5731 44.8388C36.5523 44.8388 36.5316 44.8388 36.5108 44.8388C36.3864 44.8388 36.2826 44.724 36.293 44.5989C36.293 44.4737 36.4071 44.3693 36.5316 44.3798C37.0502 44.4006 37.5377 44.0876 37.7244 43.5973L37.7659 43.5034C38.0148 42.867 37.7036 42.1472 37.0709 41.8968L32.9428 40.2588C32.8287 40.2171 32.7664 40.0815 32.8183 39.9563C32.8598 39.8415 32.9946 39.7789 33.1191 39.8311L37.2473 41.469C38.1185 41.8133 38.5438 42.8044 38.2015 43.6808L38.16 43.7747C37.8903 44.4111 37.268 44.8388 36.5731 44.8388Z" fill="#1F1F1F"/>
<path d="M35.0894 46.8108C35.0687 46.8108 35.0376 46.8108 35.0168 46.8108C34.8923 46.8004 34.7886 46.696 34.799 46.5708C34.8094 46.4456 34.9131 46.3413 35.0376 46.3518C35.5562 46.3726 36.0437 46.0596 36.2407 45.5693L36.2822 45.4754C36.5312 44.839 36.22 44.1192 35.5873 43.8688L31.4799 42.2413C31.3658 42.1995 31.3035 42.0639 31.3554 41.9387C31.3969 41.824 31.5317 41.7614 31.6562 41.8135L35.7636 43.441C36.6349 43.7853 37.0601 44.7764 36.7179 45.6528L36.6764 45.7467C36.4067 46.3935 35.774 46.8108 35.0894 46.8108Z" fill="#1F1F1F"/>
<path d="M37.6404 42.2299C37.5574 42.2299 37.4848 42.1881 37.4433 42.1047C37.3811 41.9899 37.4225 41.8543 37.5366 41.7917C37.8063 41.6456 38.0138 41.4161 38.1279 41.124C38.3872 40.4563 38.0656 39.7052 37.4018 39.4443L30.0375 36.5127C29.9234 36.471 29.8612 36.3354 29.913 36.2102C29.9545 36.0954 30.0893 36.0328 30.2138 36.085L37.5781 39.0166C38.4701 39.3713 38.9058 40.3937 38.5635 41.2909C38.4079 41.6769 38.1279 42.0004 37.7648 42.1986C37.713 42.2194 37.6715 42.2299 37.6404 42.2299Z" fill="#1F1F1F"/>
<path d="M12.0417 35.7625C11.9172 35.7625 11.8135 35.6582 11.8135 35.533C11.8135 35.4078 11.9172 35.3034 12.0417 35.3034L16.035 35.2617C16.1595 35.2617 16.2632 35.366 16.2632 35.4912C16.2632 35.6164 16.1595 35.7208 16.035 35.7208L12.0417 35.7625Z" fill="#1F1F1F"/>
<path d="M33.222 49.7006C32.9834 49.7006 32.7449 49.6588 32.5167 49.5649C32.2574 49.4606 32.0499 49.2624 31.9358 49.0016C31.8217 48.7408 31.8217 48.4486 31.9255 48.1878L32.1433 47.6349L22.8082 43.9208L13.2243 44.0147C10.6208 44.0356 8.17297 42.7732 6.67936 40.6241L1.67993 33.436C1.64881 33.3838 1.62807 33.3212 1.63844 33.269C1.64881 33.2064 1.67993 33.1543 1.73179 33.123L9.23094 27.844C9.33466 27.771 9.47987 27.7919 9.55248 27.8962L14.6868 35.2721L25.9199 35.1574C26.8119 35.1365 27.9425 35.3556 28.264 35.4286L31.3654 33.509C31.4691 33.4464 31.6143 33.4777 31.6765 33.582C31.7388 33.6863 31.7076 33.8324 31.6039 33.895L28.4196 35.8772C28.3678 35.9085 28.3055 35.9189 28.2537 35.9085C28.2433 35.9085 26.9053 35.606 25.9199 35.6268L14.5623 35.7416C14.4897 35.7416 14.4171 35.7103 14.3756 35.6477L9.30354 28.3552L2.1778 33.3525L7.05276 40.3528C8.46339 42.3768 10.766 43.5766 13.2243 43.5453L22.8497 43.4514C22.8808 43.4514 22.912 43.4514 22.9327 43.4722L32.5167 47.2802C32.6308 47.3219 32.693 47.4575 32.6411 47.5827L32.3403 48.3547C32.2781 48.5008 32.2885 48.6677 32.3507 48.8138C32.413 48.9598 32.527 49.0746 32.6826 49.1372C33.0457 49.2833 33.4502 49.2728 33.8132 49.1163C34.1762 48.9598 34.4563 48.6677 34.6015 48.3026L34.8297 47.7288C35.1305 46.9672 34.7571 46.1013 33.9999 45.7987L30.1103 44.2547C29.9962 44.213 29.934 44.0773 29.9858 43.9521C30.0273 43.8374 30.1622 43.7748 30.2866 43.8269L34.1762 45.371C35.172 45.7674 35.6595 46.8942 35.2653 47.8957L35.0371 48.4695C34.8504 48.9494 34.4874 49.3354 34.0103 49.5441C33.7406 49.638 33.4813 49.7006 33.222 49.7006Z" fill="#1F1F1F"/>
<path d="M50.6696 16.1902C50.6074 16.8266 51.0741 17.4004 51.7069 17.463L55.6172 17.8385L55.472 19.3617L56.3433 19.4452C57.7435 19.5808 58.6148 18.6419 58.594 18.6523C59.5587 17.7446 59.3408 15.8667 57.8784 15.7207L51.935 15.1365C51.3023 15.0739 50.7319 15.5433 50.6696 16.1902Z" fill="#D1D4D4"/>
<path d="M58.5943 18.893C58.532 18.893 58.4698 18.8721 58.4283 18.82C58.3453 18.7261 58.3453 18.58 58.4387 18.4966C58.8951 18.0688 59.0714 17.3594 58.8743 16.7752C58.781 16.5039 58.532 16.0344 57.8578 15.9614L51.9768 15.3876C51.7278 15.3668 51.4893 15.4398 51.2922 15.5963C51.0951 15.7528 50.981 15.9823 50.9603 16.2327C50.9188 16.7021 51.23 17.1403 51.6863 17.2446C51.8108 17.2759 51.8834 17.3907 51.8627 17.5159C51.8315 17.6411 51.7174 17.7141 51.593 17.6932C50.9084 17.5472 50.4417 16.9004 50.5143 16.1909C50.5558 15.8154 50.7321 15.4815 51.0121 15.252C51.3026 15.012 51.6552 14.9077 52.0286 14.939L57.9097 15.5128C58.5839 15.5858 59.1025 15.9927 59.3203 16.6395C59.5693 17.4011 59.3411 18.3088 58.7602 18.8513C58.7084 18.8721 58.6565 18.893 58.5943 18.893Z" fill="#1F1F1F"/>
<path d="M49.528 18.4343C49.4658 19.0707 49.9325 19.6445 50.5653 19.7071L55.3365 20.1661L55.1913 21.6893L56.0626 21.7728C57.4628 21.9084 58.3341 20.9695 58.3133 20.9799C59.278 20.0722 59.0601 18.1943 57.5976 18.0483L50.7934 17.3806C50.1607 17.318 49.5903 17.7875 49.528 18.4343Z" fill="#D1D4D4"/>
<path d="M58.3962 21.1365C58.3444 21.1365 58.2821 21.1157 58.2406 21.0739C58.1473 20.9905 58.1473 20.8444 58.2303 20.7505C58.6452 20.3123 58.7904 19.6134 58.5829 19.05C58.4896 18.7892 58.2303 18.351 57.5768 18.278L50.7726 17.6103C50.5237 17.5894 50.2851 17.6624 50.088 17.8189C49.891 17.9754 49.7769 18.2049 49.7561 18.4553C49.7043 18.9561 50.0569 19.4047 50.5444 19.4777L51.7372 19.5925C51.8617 19.6029 51.955 19.7177 51.9447 19.8429C51.9343 19.9681 51.8202 20.062 51.6957 20.0515L50.4926 19.9368C49.7458 19.822 49.2271 19.1543 49.2997 18.4136C49.3412 18.038 49.5176 17.7042 49.7976 17.4746C50.088 17.2347 50.4407 17.1304 50.8141 17.1617L57.6183 17.8294C58.2718 17.892 58.78 18.278 59.0082 18.8935C59.2779 19.6238 59.1015 20.5001 58.5622 21.0739C58.5207 21.1052 58.4585 21.1365 58.3962 21.1365Z" fill="#1F1F1F"/>
<path d="M50.4519 20.8536C50.3896 21.49 50.8564 22.0638 51.4891 22.1264L55.1194 22.4811L54.9742 24.0042L55.8454 24.0877C57.2457 24.2233 58.117 23.2844 58.0962 23.2948C59.0608 22.3872 58.843 20.5093 57.3805 20.3632L51.7173 19.8103C51.0846 19.7477 50.5141 20.2172 50.4519 20.8536Z" fill="#D1D4D4"/>
<path d="M58.1787 23.4521C58.1268 23.4521 58.0646 23.4313 58.0231 23.3895C57.9297 23.3061 57.9297 23.16 58.0127 23.0661C58.4276 22.6279 58.5728 21.929 58.3654 21.3656C58.272 21.1048 58.0127 20.6666 57.3592 20.5936L51.696 20.0406C51.4471 20.0198 51.2085 20.0928 51.0114 20.2493C50.8143 20.4058 50.7003 20.6353 50.6795 20.8857C50.6276 21.3969 51.001 21.8559 51.5093 21.9081L53.2311 22.075C53.3556 22.0854 53.4489 22.2002 53.4385 22.3254C53.4282 22.4506 53.3141 22.5445 53.1896 22.534L51.4678 22.3671C50.7106 22.2941 50.1505 21.6055 50.2231 20.8335C50.2646 20.4579 50.4409 20.1241 50.721 19.8946C51.0114 19.6546 51.3641 19.5503 51.7375 19.5816L57.4007 20.1345C58.0542 20.1971 58.5624 20.5831 58.7906 21.1987C59.0603 21.929 58.884 22.8053 58.3446 23.3791C58.2928 23.4208 58.2409 23.4521 58.1787 23.4521Z" fill="#1F1F1F"/>
<path d="M52.1833 23.3477C52.1211 23.9841 52.5878 24.5579 53.2205 24.6205L54.6312 24.7874V26.3002L55.6165 26.3941C57.0168 26.5297 57.888 25.5907 57.8673 25.6012C58.8319 24.6935 58.6141 22.8156 57.1516 22.6696L53.4383 22.3044C52.816 22.2418 52.2455 22.7113 52.1833 23.3477Z" fill="#D1D4D4"/>
<path d="M55.9069 26.6342C55.8032 26.6342 55.7098 26.6342 55.5957 26.6237L54.5792 26.509C54.4548 26.4985 54.3614 26.3838 54.3822 26.2586C54.3925 26.1334 54.5066 26.0395 54.6311 26.0604L55.6372 26.1751C56.8508 26.3003 57.6287 25.5283 57.6909 25.4657C57.7013 25.4553 57.7013 25.4448 57.7117 25.4448C58.168 25.0171 58.3444 24.3077 58.1473 23.7234C58.0539 23.4522 57.805 22.9827 57.1308 22.9097L53.4175 22.5445C53.1686 22.5237 52.93 22.5967 52.733 22.7532C52.5359 22.9097 52.4218 23.1392 52.4011 23.3896C52.3492 23.9008 52.7226 24.3598 53.2308 24.412L55.9069 24.725C56.0314 24.7354 56.1247 24.8502 56.104 24.9754C56.0936 25.1006 55.9795 25.1944 55.855 25.1736L53.179 24.8606C52.4218 24.7876 51.8617 24.099 51.9447 23.3374C51.9862 22.9618 52.1625 22.628 52.4425 22.3985C52.733 22.1585 53.0856 22.0542 53.459 22.0855L57.1723 22.4506C57.8465 22.5237 58.3651 22.9305 58.5829 23.5774C58.8319 24.339 58.6037 25.2466 58.0228 25.7891C57.8154 25.9978 57.0478 26.6342 55.9069 26.6342Z" fill="#1F1F1F"/>
<path d="M22.58 4.10989C22.58 6.61374 20.5678 8.63769 18.0888 8.63769H16.0662L9.79102 9.86875V7.77177C9.79102 5.53917 11.0149 3.48393 12.9753 2.43022L16.6056 0.489735C19.3128 -0.970846 22.58 1.01137 22.58 4.10989Z" fill="#1F1F1F"/>
<path d="M10.9209 20.6673L17.0302 24.3709V12.2168H10.9209V20.6673Z" fill="#D1D4D4"/>
<path d="M10.9209 15.0336V12.2168H17.0302V18.4347C16.4804 18.5703 15.381 18.7372 14.1156 18.226C12.1448 17.4332 11.1698 15.5553 10.9209 15.0336Z" fill="#1F1F1F"/>
<path d="M15.641 16.6913C18.8718 16.6913 21.4909 13.772 21.4909 10.1708C21.4909 6.5697 18.8718 3.65039 15.641 3.65039C12.4101 3.65039 9.79102 6.5697 9.79102 10.1708C9.79102 13.772 12.4101 16.6913 15.641 16.6913Z" fill="#D1D4D4"/>
<path d="M15.6417 16.9218C13.8058 16.9218 12.5507 16.6401 11.1297 15.1483C11.0468 15.0544 11.0468 14.9083 11.1401 14.8248C11.2335 14.7414 11.3787 14.7414 11.4616 14.8353C12.7789 16.2124 13.9095 16.4628 15.652 16.4628C18.7533 16.4628 21.2738 13.6459 21.2738 10.1718C21.2738 6.70818 18.7533 3.88091 15.652 3.88091C13.6606 3.88091 11.8558 5.01808 10.8289 6.92727C10.7667 7.04203 10.6319 7.08376 10.5178 7.02116C10.4037 6.95857 10.3622 6.82294 10.4244 6.70818C11.5135 4.6738 13.5154 3.42188 15.6417 3.42188C18.9919 3.42188 21.7198 6.44736 21.7198 10.1718C21.7198 13.8963 18.9919 16.9218 15.6417 16.9218Z" fill="#1F1F1F"/>
<path d="M15.641 3.65039C12.4048 3.65039 9.79102 6.57155 9.79102 10.1708C9.79102 10.4943 9.81176 10.8177 9.85325 11.1202L13.6391 8.30338H21.242C20.5263 5.61174 18.2963 3.65039 15.641 3.65039Z" fill="#1F1F1F"/>
<path d="M14.043 13.8852C14.5201 14.3338 15.1424 14.6259 15.8477 14.6989C17.4036 14.8554 18.8142 13.833 19.198 12.3516L14.043 13.8852Z" fill="white"/>
</g>
<defs>
<clipPath id="clip0_1383_32884">
<rect width="73" height="88" fill="white"/>
</clipPath>
</defs>
</svg>
