<svg width="20" height="20" viewBox="0 0 20 20" fill="none" xmlns="http://www.w3.org/2000/svg">
<path d="M9.99185 6.96C8.935 6.96 8.07031 6.096 8.07031 5.04V0H11.8974V5.04C11.9134 6.096 11.0647 6.96 9.99185 6.96Z" fill="#FF8200"/>
<path d="M9.99185 13.0391C8.935 13.0391 8.07031 13.9031 8.07031 14.9591V19.9991H11.8974V14.9591C11.9134 13.8871 11.0647 13.0391 9.99185 13.0391Z" fill="#FF8200"/>
<path d="M7.84636 7.85598C7.09375 8.60798 5.89279 8.60798 5.14019 7.85598L1.56934 4.28798L4.2755 1.58398L7.84636 5.15198C8.59896 5.88798 8.59896 7.10398 7.84636 7.85598Z" fill="#FF8200"/>
<path d="M12.1538 12.1441C11.4012 12.8961 11.4012 14.0961 12.1538 14.8481L15.7247 18.4161L18.4308 15.7121L14.86 12.1441C14.1074 11.3921 12.8904 11.3921 12.1538 12.1441Z" fill="#FF8200"/>
<path d="M6.96557 9.99992C6.96557 11.0559 6.10088 11.9199 5.04404 11.9199H0V8.09592H5.04404C6.10088 8.07992 6.96557 8.94392 6.96557 9.99992Z" fill="#FF8200"/>
<path d="M13.0347 9.99992C13.0347 11.0559 13.8994 11.9199 14.9562 11.9199H20.0002V8.09592H14.9562C13.8994 8.07992 13.0347 8.94392 13.0347 9.99992Z" fill="#FF8200"/>
<path d="M7.84636 12.1441C8.59896 12.8961 8.59896 14.0961 7.84636 14.8481L4.2755 18.4161L1.56934 15.7121L5.14019 12.1441C5.89279 11.3921 7.09375 11.3921 7.84636 12.1441Z" fill="#FF8200"/>
<path d="M12.1538 7.85598C12.9064 8.60798 14.1074 8.60798 14.86 7.85598L18.4308 4.28798L15.7247 1.58398L12.1538 5.15198C11.4012 5.88798 11.4012 7.10398 12.1538 7.85598Z" fill="#FF8200"/>
</svg>
