<svg width="554" height="492" viewBox="0 0 554 492" fill="none" xmlns="http://www.w3.org/2000/svg">
<path d="M122.75 33.8909C66.3624 66.4462 25.2169 120.068 8.36505 182.96C-8.48683 245.852 0.335279 312.863 32.8906 369.25C65.4459 425.638 119.068 466.783 181.96 483.635C244.852 500.487 311.862 491.665 368.25 459.109L245.5 246.5L122.75 33.8909Z" fill="#FF8200"/>
<path d="M553.215 8.54004C490.323 -8.31184 423.312 0.510264 366.925 33.0656C310.537 65.6209 269.392 119.243 252.54 182.135C235.688 245.027 244.51 312.037 277.066 368.425C309.621 424.812 363.243 465.958 426.135 482.81L489.675 245.675L553.215 8.54004Z" fill="#1F1F1F"/>
</svg>
