<svg width="28" height="32" viewBox="0 0 28 32" fill="none" xmlns="http://www.w3.org/2000/svg">
<path fill-rule="evenodd" clip-rule="evenodd" d="M20.5444 1.66623C14.0606 -1.88192 5.8387 0.612485 2.20191 7.25822C1.12158 9.23237 0.809482 12.184 0.976944 15.3599C1.34232 22.3098 3.8781 30.3648 3.8781 30.3648C4.07396 30.9881 4.7272 31.3456 5.35778 31.1745C5.35778 31.1745 13.5091 28.9679 19.5595 25.529C22.3247 23.958 24.6425 22.1039 25.7228 20.1297C29.3596 13.484 27.0282 5.21438 20.5444 1.66623ZM16.4489 9.15016C18.809 10.4417 19.6767 13.4069 18.3852 15.767C17.0936 18.1271 14.1285 18.9948 11.7684 17.7032C9.40825 16.4117 8.54057 13.4465 9.83211 11.0864C10.4777 9.90663 11.5418 9.09961 12.7399 8.74944C13.9379 8.39844 15.2691 8.50454 16.4489 9.15016Z" fill="currentColor"/>
</svg>
