<svg width="39" height="11" viewBox="0 0 39 11" fill="none" xmlns="http://www.w3.org/2000/svg">
<path fill-rule="evenodd" clip-rule="evenodd" d="M35.8564 4.94158C35.8047 4.99769 35.0915 5.49677 34.6863 5.68425C31.8405 7.0006 26.1022 7.95188 19.4999 7.95188C12.8976 7.95188 7.1593 7.0006 4.31351 5.68425C3.90832 5.49677 3.57066 5.30598 3.31505 5.10529C3.25825 5.0604 3.19514 4.99769 3.14339 4.94158C3.28792 4.83463 3.53595 4.66233 3.76632 4.55737C5.07845 3.95795 7.27165 3.50178 10.019 3.09842C10.6848 3.00072 11.1462 2.3815 11.0484 1.71606C10.9505 1.05063 10.3314 0.589177 9.66554 0.686879C6.0586 1.21566 3.31947 1.90354 1.99282 2.74788C1.0152 3.36975 0.609375 4.14015 0.609375 4.9046C0.609375 5.42745 0.797453 5.96349 1.23104 6.47313C1.64381 6.95835 2.33364 7.45412 3.29044 7.89642C6.32936 9.30255 12.4476 10.3892 19.4999 10.3892C26.5522 10.3892 32.6704 9.30255 35.7094 7.89642C36.6662 7.45412 37.356 6.95835 37.7688 6.47313C38.2023 5.96349 38.3904 5.42745 38.3904 4.9046C38.3904 4.14345 37.989 3.37833 37.0221 2.75844C35.7138 1.92005 33.0125 1.23481 29.4479 0.703384C28.7826 0.604361 28.1616 1.06383 28.0625 1.72926C27.9634 2.3947 28.4229 3.01524 29.0881 3.11427C31.7988 3.51828 33.9599 3.97181 35.2512 4.56727C35.4739 4.66959 35.7144 4.83661 35.8564 4.94158Z" fill="currentColor"/>
</svg>
