<svg width="31" height="31" viewBox="0 0 31 31" fill="none" xmlns="http://www.w3.org/2000/svg">
<path d="M22.7852 27.122H9.06301C8.26648 27.121 7.50285 26.8042 6.93962 26.241C6.37639 25.6777 6.05955 24.9141 6.05859 24.1176V6.02395C6.05955 5.22742 6.37639 4.46379 6.93962 3.90056C7.50285 3.33732 8.26648 3.02048 9.06301 3.01953H18.0625C18.3008 3.01958 18.5294 3.11425 18.698 3.28274L25.5258 10.1106C25.6094 10.1941 25.6758 10.2932 25.721 10.4024C25.7663 10.5115 25.7896 10.6285 25.7896 10.7467V24.117C25.7889 24.9136 25.4721 25.6774 24.9088 26.2408C24.3456 26.8041 23.5819 27.121 22.7852 27.122ZM9.06301 4.81822C8.74333 4.81854 8.43683 4.94567 8.21078 5.17172C7.98474 5.39777 7.8576 5.70427 7.85729 6.02395V24.1176C7.8576 24.4373 7.98474 24.7438 8.21078 24.9698C8.43683 25.1959 8.74333 25.323 9.06301 25.3233H22.7852C23.1049 25.323 23.4114 25.1959 23.6375 24.9698C23.8635 24.7438 23.9906 24.4373 23.991 24.1176V11.119L17.6895 4.81822H9.06301Z" fill="#1F1F1F"/>
<path d="M24.8918 11.6461H20.1685C19.3719 11.6451 18.6083 11.3283 18.0451 10.765C17.4819 10.2018 17.165 9.43817 17.1641 8.64164V3.91888C17.1641 3.68036 17.2588 3.4516 17.4275 3.28294C17.5961 3.11428 17.8249 3.01953 18.0634 3.01953C18.3019 3.01953 18.5307 3.11428 18.6993 3.28294C18.868 3.4516 18.9628 3.68036 18.9628 3.91888V8.64164C18.9631 8.96132 19.0902 9.26782 19.3163 9.49387C19.5423 9.71992 19.8488 9.84705 20.1685 9.84737H24.8912C25.1298 9.84737 25.3585 9.94212 25.5272 10.1108C25.6958 10.2794 25.7906 10.5082 25.7906 10.7467C25.7906 10.9852 25.6958 11.214 25.5272 11.3826C25.3585 11.5513 25.1298 11.6461 24.8912 11.6461H24.8918Z" fill="#1F1F1F"/>
<path d="M9.49609 16.1718C9.49609 15.9733 9.67596 15.7988 9.95656 15.7988H11.5946C12.642 15.7988 13.4676 16.2911 13.4676 17.6245V17.6641C13.4676 18.9975 12.6102 19.5053 11.5148 19.5053H10.7312V21.2195C10.7312 21.4737 10.4218 21.6002 10.1118 21.6002C9.80187 21.6002 9.49609 21.4737 9.49609 21.2195V16.1718ZM10.7342 16.878V18.5526H11.5196C11.9639 18.5526 12.2343 18.299 12.2343 17.7594V17.6719C12.2343 17.1323 11.9639 16.878 11.5196 16.878H10.7342Z" fill="#1F1F1F"/>
<path d="M15.9522 15.7988C17.0476 15.7988 17.905 16.3067 17.905 17.6719V19.7278C17.905 21.0924 17.0476 21.6002 15.9522 21.6002H14.5474C14.2225 21.6002 14.0078 21.4257 14.0078 21.2273V16.1718C14.0078 15.9733 14.2225 15.7988 14.5474 15.7988H15.9522ZM15.2459 16.878V20.521H15.9522C16.3971 20.521 16.6669 20.2674 16.6669 19.7278V17.6719C16.6669 17.1323 16.3971 16.878 15.9522 16.878H15.2459Z" fill="#1F1F1F"/>
<path d="M18.692 16.1801C18.692 15.9259 18.9618 15.7988 19.2316 15.7988H21.9854C22.2474 15.7988 22.3589 16.077 22.3589 16.3306C22.3589 16.6244 22.224 16.878 21.9854 16.878H19.9295V18.2199H21.1286C21.3685 18.2199 21.5016 18.4495 21.5016 18.7037C21.5016 18.9178 21.3906 19.172 21.1286 19.172H19.9295V21.2195C19.9295 21.4737 19.6201 21.6002 19.3108 21.6002C19.0014 21.6002 18.6914 21.4737 18.6914 21.2195L18.692 16.1801Z" fill="#1F1F1F"/>
</svg>
