<svg width="203" height="406" viewBox="0 0 203 406" fill="none" xmlns="http://www.w3.org/2000/svg">
<path d="M203 -8.87341e-06C149.161 -6.52004e-06 97.5272 21.3874 59.4573 59.4573C21.3874 97.5272 -7.16206e-06 149.161 -8.87341e-06 203C-1.05848e-05 256.839 21.3874 308.473 59.4573 346.543C97.5272 384.613 149.161 406 203 406L203 280.041C182.568 280.041 162.972 271.924 148.524 257.476C134.076 243.028 125.959 223.432 125.959 203C125.959 182.568 134.076 162.972 148.524 148.524C162.972 134.076 182.568 125.959 203 125.959L203 -8.87341e-06Z" fill="currentColor"/>
</svg>
