<svg width="478" height="239" viewBox="0 0 478 239" fill="none" xmlns="http://www.w3.org/2000/svg">
<path d="M478 239C478 207.614 471.818 176.535 459.807 147.539C447.796 118.542 430.192 92.1947 407.999 70.0015C385.805 47.8083 359.458 30.2037 330.461 18.1928C301.465 6.18191 270.386 -1.00727e-05 239 -1.0447e-05C207.614 -1.08213e-05 176.535 6.18191 147.539 18.1928C118.542 30.2037 92.1946 47.8083 70.0014 70.0015C47.8082 92.1947 30.2036 118.542 18.1928 147.539C6.18188 176.535 -4.19622e-05 207.614 -4.09646e-05 239L129.435 239C129.435 224.612 132.269 210.364 137.776 197.071C143.282 183.778 151.352 171.7 161.526 161.526C171.7 151.352 183.778 143.282 197.071 137.776C210.364 132.269 224.612 129.435 239 129.435C253.388 129.435 267.636 132.269 280.929 137.776C294.221 143.282 306.3 151.352 316.474 161.526C326.648 171.7 334.718 183.778 340.224 197.071C345.731 210.364 348.565 224.612 348.565 239L478 239Z" fill="currentColor"/>
</svg>
