<svg width="22" height="22" viewBox="0 0 22 22" fill="none" xmlns="http://www.w3.org/2000/svg">
<path d="M10.6842 21.3145C12.0412 21.3145 13.3849 21.0472 14.6386 20.5279C15.8923 20.0086 17.0315 19.2474 17.991 18.2879C18.9506 17.3284 19.7117 16.1892 20.231 14.9355C20.7503 13.6818 21.0176 12.3381 21.0176 10.9811C21.0176 9.62413 20.7503 8.28042 20.231 7.02673C19.7117 5.77303 18.9506 4.63389 17.991 3.67435C17.0315 2.71481 15.8923 1.95366 14.6386 1.43437C13.3849 0.915068 12.0412 0.647789 10.6842 0.647789L10.6842 10.9811L10.6842 21.3145Z" fill="currentColor"/>
<path d="M0.0182304 21.3145C1.37522 21.3145 2.71893 21.0472 3.97263 20.5279C5.22632 20.0086 6.36546 19.2474 7.325 18.2879C8.28454 17.3284 9.04569 16.1892 9.56498 14.9355C10.0843 13.6818 10.3516 12.3381 10.3516 10.9811C10.3516 9.62413 10.0843 8.28042 9.56498 7.02673C9.04569 5.77303 8.28454 4.63389 7.325 3.67435C6.36546 2.71481 5.22632 1.95366 3.97262 1.43437C2.71893 0.915068 1.37522 0.647789 0.0182288 0.647789L0.0182301 10.9811L0.0182304 21.3145Z" fill="currentColor"/>
</svg>
