<svg class="semicircle-right" width="17" height="35" viewBox="0 0 17 35" fill="none" xmlns="http://www.w3.org/2000/svg">
<g clip-path="url(#clip0_1383_29458)">
<path d="M-0.5 35C1.79813 35 4.07376 34.5473 6.19696 33.6679C8.32016 32.7884 10.2493 31.4994 11.8744 29.8744C13.4994 28.2493 14.7884 26.3202 15.6679 24.197C16.5474 22.0738 17 19.7981 17 17.5C17 15.2019 16.5474 12.9262 15.6679 10.803C14.7884 8.67984 13.4994 6.75066 11.8744 5.12563C10.2493 3.5006 8.32016 2.21156 6.19696 1.33211C4.07376 0.452651 1.79814 -1.32899e-06 -0.499999 -1.5299e-06L-0.499998 17.5L-0.5 35Z" fill="currentColor"/>
</g>
<defs>
<clipPath id="clip0_1383_29458">
<rect width="17" height="35" fill="white"/>
</clipPath>
</defs>
</svg>
