<svg width="16" height="20" viewBox="0 0 16 20" fill="none" xmlns="http://www.w3.org/2000/svg">
<path d="M15.7493 8.37965C14.2016 8.38335 12.6918 7.90066 11.4332 6.99977V13.2829C11.4328 14.4466 11.0771 15.5824 10.4137 16.5385C9.75031 17.4946 8.81084 18.2254 7.72091 18.6332C6.63098 19.0409 5.44255 19.1062 4.31451 18.8203C3.18648 18.5344 2.17262 17.9109 1.4085 17.0332C0.644374 16.1555 0.166414 15.0655 0.0385254 13.9088C-0.089363 12.7522 0.138916 11.584 0.69284 10.5606C1.24676 9.53721 2.09993 8.70729 3.13825 8.18185C4.17657 7.65641 5.35057 7.46048 6.50325 7.62027V10.7805C5.97578 10.6146 5.40937 10.6196 4.88491 10.7947C4.36045 10.9699 3.90476 11.3064 3.58292 11.756C3.26107 12.2056 3.08953 12.7455 3.09278 13.2984C3.09604 13.8513 3.27393 14.3891 3.60105 14.8349C3.92817 15.2807 4.38779 15.6118 4.91428 15.7808C5.44077 15.9498 6.00719 15.9481 6.53267 15.776C7.05815 15.6039 7.5158 15.2701 7.84028 14.8224C8.16476 14.3747 8.33947 13.8358 8.33946 13.2829V1H11.4332C11.4311 1.26126 11.4529 1.52216 11.4986 1.77941C11.6061 2.35368 11.8296 2.89999 12.1555 3.38491C12.4814 3.86983 12.9028 4.28317 13.3939 4.59965C14.0926 5.06163 14.9117 5.30787 15.7493 5.3077V8.37965Z" fill="currentColor"/>
</svg>
