<svg width="328" height="242" viewBox="0 0 328 242" fill="none" xmlns="http://www.w3.org/2000/svg">
<mask id="mask0_5283_15012" style="mask-type:alpha" maskUnits="userSpaceOnUse" x="0" y="0" width="328" height="242">
<path fill-rule="evenodd" clip-rule="evenodd" d="M321.795 148.532C341.789 113.901 310.762 58.5556 252.494 24.9144C194.225 -8.72683 130.781 -7.92433 110.787 26.7068C102.952 40.2775 102.951 57.0291 109.355 74.409C63.9121 59.9097 21.8121 66.3263 6.20076 93.366C-13.7935 127.997 17.2337 183.343 75.5019 216.984C133.77 250.625 197.215 249.823 217.209 215.192C225.044 201.621 225.044 184.869 218.641 167.489C264.083 181.989 306.183 175.572 321.795 148.532Z" fill="#D9D9D9"/>
</mask>
<g mask="url(#mask0_5283_15012)">
<rect x="-119" y="-88" width="628" height="418" fill="black"/>
</g>
</svg>
