<svg width="923" height="492" viewBox="0 0 923 492" fill="none" xmlns="http://www.w3.org/2000/svg">
<path d="M123.75 33.8909C67.3624 66.4462 26.2169 120.068 9.36504 182.96C-7.48682 245.852 1.33528 312.863 33.8906 369.25C66.4459 425.638 120.068 466.783 182.96 483.635C245.852 500.487 312.862 491.665 369.25 459.109L246.5 246.5L123.75 33.8909Z" fill="#FFC07F"/>
<path d="M554.215 8.54004C491.323 -8.31184 424.312 0.510275 367.925 33.0656C311.537 65.6209 270.392 119.243 253.54 182.135C236.688 245.027 245.51 312.037 278.066 368.425C310.621 424.812 364.243 465.958 427.135 482.81L490.675 245.675L554.215 8.54004Z" fill="#1F1F1F"/>
<path d="M570.905 72.9034C524.865 118.944 499 181.387 499 246.498C499 311.609 524.865 374.053 570.905 420.093C616.945 466.133 679.389 491.998 744.5 491.998C809.611 491.998 872.054 466.133 918.095 420.093L744.5 246.498L570.905 72.9034Z" fill="#0536FC"/>
</svg>
