<svg width="566" height="440" viewBox="0 0 566 440" fill="none" xmlns="http://www.w3.org/2000/svg">
<mask id="mask0_1383_4270" style="mask-type:alpha" maskUnits="userSpaceOnUse" x="0" y="0" width="566" height="440">
<path fill-rule="evenodd" clip-rule="evenodd" d="M0.000972781 435.642C57.7652 435.642 113.163 412.696 154.009 371.85C168.433 357.426 180.625 341.188 190.362 323.671C200.404 342.559 213.261 360.031 228.664 375.433C269.509 416.279 324.907 439.226 382.672 439.226V339.999C391.011 352.961 400.764 365.097 411.832 376.165C452.677 417.01 508.075 439.957 565.84 439.957L565.84 222.157L565.84 4.35665C508.075 4.35665 452.677 27.3034 411.832 68.1488C400.764 79.2165 391.011 91.3525 382.672 104.315V3.6252C324.907 3.62521 269.509 26.5719 228.664 67.4174C214.24 81.8413 202.048 98.0799 192.31 115.597C182.269 96.7088 169.412 79.2368 154.009 63.8342C113.164 22.9888 57.7652 0.0420034 0.00102471 0.0419922L0.000982301 217.842L0.000972781 435.642Z" fill="#0536FC"/>
</mask>
<g mask="url(#mask0_1383_4270)">
<rect x="-157" y="-13.958" width="879" height="468" fill="black"/>
</g>
</svg>
