<svg width="553" height="442" viewBox="0 0 553 442" fill="none" xmlns="http://www.w3.org/2000/svg">
<mask id="mask0_1383_4160" style="mask-type:alpha" maskUnits="userSpaceOnUse" x="0" y="0" width="553" height="442">
<path fill-rule="evenodd" clip-rule="evenodd" d="M228.096 0.257765C170.467 -2.55706 114.087 17.7717 71.3592 56.7721C28.631 95.7724 3.05452 150.25 0.256261 208.219C-2.542 266.189 17.6672 322.902 56.438 365.883C95.2089 408.864 149.365 434.592 206.994 437.407L210.737 359.857C239.486 395.695 278.958 421.74 323.732 433.808L355.437 314.782C366.095 338.038 380.826 359.45 399.173 377.905C439.97 418.944 495.304 442 553 442L553 223.168L553 4.33547C507.734 4.33547 463.922 18.5268 427.444 44.4602L436.341 11.0569C380.611 -3.96438 321.231 3.8994 271.264 32.9183C254.055 42.9131 238.447 55.1355 224.77 69.1558L228.096 0.257765Z" fill="#0536FC"/>
</mask>
<g mask="url(#mask0_1383_4160)">
<rect x="-12.9668" y="-274.368" width="641.149" height="970.029" fill="black"/>
</g>
</svg>
