<svg width="611" height="437" viewBox="0 0 611 437" fill="none" xmlns="http://www.w3.org/2000/svg">
<mask id="mask0_1383_4300" style="mask-type:alpha" maskUnits="userSpaceOnUse" x="0" y="0" width="611" height="437">
<path fill-rule="evenodd" clip-rule="evenodd" d="M332.903 402.982C299.507 423.812 260.059 435.847 217.8 435.847C97.5124 435.847 0 338.335 0 218.047C0 97.7597 97.5124 0.247284 217.8 0.247284C259.891 0.247284 299.194 12.1873 332.506 32.8651C373.818 7.16379 422.798 -4.09883 471.644 1.33709L468.162 32.6241C493.754 16.9649 522.552 6.60937 552.863 2.54076L581.838 218.405L610.813 434.269C553.563 441.954 495.604 426.581 449.688 391.532C442.794 386.271 436.257 380.63 430.098 374.649L423.464 434.265C391.02 430.654 360.138 419.844 332.903 402.982Z" fill="#D9D9D9"/>
</mask>
<g mask="url(#mask0_1383_4300)">
<rect x="-318" y="-209.753" width="1214" height="807" fill="black"/>
</g>
</svg>
