<svg width="590" height="440" viewBox="0 0 590 440" fill="none" xmlns="http://www.w3.org/2000/svg">
<mask id="mask0_5206_14688" style="mask-type:alpha" maskUnits="userSpaceOnUse" x="0" y="0" width="590" height="440">
<path fill-rule="evenodd" clip-rule="evenodd" d="M135.81 16.7465C162.501 5.69047 191.109 1.26286e-06 220 0V59.0641C259.298 22.4209 312.03 1.72459e-05 370 1.72459e-05C491.503 1.72459e-05 590 98.4974 590 220C590 341.503 491.503 440 370 440C312.03 440 259.298 417.579 220 380.936L220 440C191.109 440 162.501 434.31 135.81 423.254C109.118 412.197 84.8654 395.992 64.4365 375.564C44.0076 355.135 27.8025 330.882 16.7465 304.19C5.69047 277.499 2.52572e-06 248.891 0 220C-2.52571e-06 191.109 5.69046 162.501 16.7465 135.81C27.8025 109.118 44.0076 84.8654 64.4365 64.4365C84.8654 44.0076 109.118 27.8025 135.81 16.7465Z" fill="#D9D9D9"/>
</mask>
<g mask="url(#mask0_5206_14688)">
<rect x="-256" y="-90" width="1082" height="720" fill="black"/>
</g>
</svg>
