<svg width="125" height="54" viewBox="0 0 125 54" fill="none" xmlns="http://www.w3.org/2000/svg">
<path d="M45.4609 4.15234H48.5284V9.22903H53.6358V4.15234H56.7033V17.4039H53.6358V12.0665H48.5284V17.4039H45.4609V4.15234Z" fill="white"/>
<path d="M63.4205 11.591H66.1045L65.307 9.42842C65.307 9.42842 65.0002 8.64621 64.7548 7.84866C64.5094 8.64621 64.2027 9.42842 64.2027 9.42842L63.4205 11.591ZM63.3131 4.15234H66.1966L71.5953 17.4039H68.2671L67.0708 14.1984H62.4542L61.2579 17.4039H57.9297L63.3131 4.15234Z" fill="white"/>
<path d="M75.8898 14.8732H78.6045C79.9235 14.8732 80.537 14.2444 80.537 13.2781C80.537 12.3119 79.9542 11.6523 78.6045 11.6523H75.8898V14.8732ZM75.8898 9.15234H78.4511C79.494 9.15234 80.0769 8.61553 80.0769 7.83333C80.0769 7.03578 79.494 6.54498 78.4511 6.54498H75.8898V9.15234ZM72.8223 4.15234H78.4971C81.2272 4.15234 82.9143 5.364 82.9143 7.40388C82.9143 8.79958 82.1781 9.56645 81.1965 10.1646C82.3315 10.6401 83.4664 11.6217 83.4664 13.4161C83.4664 15.9161 81.2885 17.3885 78.6965 17.3885H72.8223V4.15234Z" fill="white"/>
<path d="M91.7787 4.15234H94.6621V17.4039H91.7787V11.9131C90.9965 12.6493 90.2603 12.9407 89.0179 12.9407C86.7327 12.9407 84.6621 11.545 84.6621 8.04805V4.15234H87.5455V7.91001C87.5455 9.58179 88.4965 10.3333 89.6314 10.3333C90.7664 10.3333 91.794 9.65848 91.794 7.67995V4.15234H91.7787Z" fill="white"/>
<path d="M101.366 11.591H104.05L103.252 9.42842C103.252 9.42842 102.946 8.64621 102.7 7.84866C102.455 8.64621 102.148 9.42842 102.148 9.42842L101.366 11.591ZM101.274 4.15234H104.142L109.541 17.4039H106.212L105.016 14.1984H100.4L99.2032 17.4039H95.875L101.274 4.15234Z" fill="white"/>
<path d="M117.163 0.625C117.163 1.08512 116.948 1.42255 116.503 1.42255C116.043 1.42255 115.844 1.08512 115.844 0.625H114.234C114.234 1.97469 115.123 2.94095 116.503 2.94095C117.884 2.94095 118.773 1.97469 118.773 0.625H117.163ZM122.24 17.4041H119.249V8.78451C119.142 9.07592 118.681 9.82745 118.681 9.82745L113.865 17.4041H110.752V4.15261H113.743V12.7109C113.85 12.4195 114.31 11.6679 114.31 11.6679L119.126 4.15261H122.24V17.4041Z" fill="white"/>
<path d="M53.3745 24.3979H50.215L49.7242 28.3396C49.4941 30.1648 49.2181 31.4225 48.6659 32.8028H53.3745V24.3979ZM47.0248 37.4347H44.4941V32.8182H45.5984C46.1813 31.5758 46.6721 30.0268 46.8868 28.1709L47.5463 21.9746H56.2579V32.8028H57.2089V37.4347H54.6782V35.2415H47.0402V37.4347H47.0248Z" fill="white"/>
<path d="M58.8189 32.4654C59.003 32.5574 59.3097 32.6955 59.6318 32.6955C60.1379 32.6955 60.46 32.3734 60.5367 31.6985L61.6717 21.9746H70.46V35.2261H67.5459V24.582H64.2177L63.3281 32.3887C63.1134 34.2599 62.1932 35.3795 60.184 35.3795C59.4017 35.3795 58.9109 35.2875 58.3281 35.1188L58.8189 32.4654Z" fill="white"/>
<path d="M79.9378 24.4749H76.9317C75.7507 24.4749 75.2446 25.1497 75.2446 25.9933C75.2446 26.8215 75.7507 27.5117 76.9317 27.5117H79.9378V24.4749ZM75.3366 35.2418H72.0391L75.1526 29.751C73.4348 29.0148 72.2691 27.8798 72.2691 25.8859C72.2691 23.4013 73.9869 21.9902 77.1311 21.9902H83.0053V35.2418H79.9378V30.0117H78.2967L75.3366 35.2418Z" fill="white"/>
<path d="M48.6508 48.4779L44.4023 39.7969H47.7306L50.0772 44.8429L52.0711 39.7969H55.2306L50.614 51.1312C50.0005 52.5883 49.0649 53.3245 47.6385 53.3245C46.9637 53.3245 46.4422 53.2478 45.8594 53.0637L46.4422 50.0269C46.6723 50.1803 46.979 50.3337 47.3471 50.3337C47.6846 50.3337 47.9913 50.1803 48.2367 49.5361L48.6508 48.4779Z" fill="white"/>
<path d="M62.8979 44.7963L67.8826 53.0478H64.401L60.766 46.9896L59.5851 48.2165V53.0478H56.5176V39.781H59.5851V44.3208C59.9685 43.8914 60.3366 43.4619 60.3366 43.4619L63.8949 39.7656H67.7139L62.8979 44.7963Z" fill="white"/>
<path d="M72.2706 46.0085H75.3228C76.9025 46.0085 77.516 45.2263 77.516 44.168C77.516 43.1098 76.8872 42.3275 75.3228 42.3275H72.2706V46.0085ZM69.2031 39.7969H75.3994C78.5436 39.7969 80.5835 41.2539 80.5835 44.168C80.5835 47.0822 78.5436 48.5392 75.3994 48.5392H72.2706V53.0484H69.2031V39.7969Z" fill="white"/>
<path d="M85.108 47.2509H87.792L86.9945 45.0883C86.9945 45.0883 86.6877 44.3061 86.4423 43.5085C86.1969 44.3061 85.8902 45.0883 85.8902 45.0883L85.108 47.2509ZM85.016 39.7969H87.8841L93.2828 53.0637H89.9546L88.7583 49.8582H84.1417L82.9454 53.0637H79.6172L85.016 39.7969Z" fill="white"/>
<path d="M96.6095 35.8086H99.2169V38.508H96.6095V35.8086ZM94.5083 39.7963H97.5758V53.0632H94.5083V39.7963ZM92.8672 35.8086H95.4745V38.508H92.8672V35.8086Z" fill="white"/>
<path d="M99.9082 39.7969H102.976V44.8736H108.098V39.7969H111.166V53.0637H108.098V47.7263H102.976V53.0637H99.9082V39.7969Z" fill="white"/>
<path d="M124.968 53.0637H121.978V44.4441C121.87 44.7355 121.41 45.4871 121.41 45.4871L116.594 53.0637H113.496V39.7969H116.487V48.3552C116.594 48.0637 117.054 47.3122 117.054 47.3122L121.87 39.7969H124.984V53.0637H124.968Z" fill="white"/>
<path d="M0 9.30594H14.1718L10.2607 36.4225H16.2117L20.138 9.30594H34.3098V4.06055H0V9.30594Z" fill="white"/>
<path d="M34.3707 17.3743V12.1289H22.8523L22.1621 17.3743H34.3707Z" fill="#FF8200"/>
<path d="M34.248 20.61H28.297V36.653C28.297 43.7389 24.3246 48.7082 17.1621 48.7082C9.99949 48.7082 6.02709 43.7389 6.02709 36.653V12.3125H0.0761719V36.4383C0.0761719 47.6346 7.02403 53.9536 17.1621 53.9536C27.3001 53.9536 34.248 47.6499 34.248 36.4383V20.61Z" fill="white"/>
</svg>
