<svg width="478" height="239" viewBox="0 0 478 239" fill="none" xmlns="http://www.w3.org/2000/svg">
<g clip-path="url(#clip0_1383_29462)">
<path d="M-1.0447e-05 1.52588e-05C-9.44937e-06 31.3859 6.18191 62.4645 18.1928 91.4613C30.2037 120.458 47.8083 146.805 70.0015 168.999C92.1947 191.192 118.542 208.796 147.539 220.807C176.535 232.818 207.614 239 239 239C270.386 239 301.465 232.818 330.461 220.807C359.458 208.796 385.805 191.192 407.999 168.999C430.192 146.805 447.796 120.458 459.807 91.4613C471.818 62.4645 478 31.3859 478 -2.0894e-05L348.565 -1.52362e-05C348.565 14.3882 345.731 28.6355 340.224 41.9285C334.718 55.2215 326.648 67.2998 316.474 77.4738C306.3 87.6478 294.222 95.7183 280.929 101.224C267.636 106.731 253.388 109.565 239 109.565C224.612 109.565 210.364 106.731 197.071 101.224C183.778 95.7183 171.7 87.6479 161.526 77.4738C151.352 67.2998 143.282 55.2215 137.776 41.9285C132.269 28.6356 129.435 14.3882 129.435 9.60099e-06L-1.0447e-05 1.52588e-05Z" fill="#FFC07F"/>
</g>
<defs>
<clipPath id="clip0_1383_29462">
<rect width="478" height="239" fill="white"/>
</clipPath>
</defs>
</svg>
